<?xml version="1.0" encoding="UTF-8"?>
<svg version="1.1" xmlns="http://www.w3.org/2000/svg" width="1024" height="1024">
<path d="M0 0 C337.92 0 675.84 0 1024 0 C1024 337.92 1024 675.84 1024 1024 C686.08 1024 348.16 1024 0 1024 C0 686.08 0 348.16 0 0 Z " fill="#FCFCFC" transform="translate(0,0)"/>
<path d="M0 0 C337.92 0 675.84 0 1024 0 C1024 337.92 1024 675.84 1024 1024 C686.08 1024 348.16 1024 0 1024 C0 686.08 0 348.16 0 0 Z M458 96 C456.58839394 96.20078933 455.17677216 96.40146817 453.76513672 96.60205078 C373.26428151 108.19645114 297.06559143 140.69287421 236 195 C235.01515625 195.87269531 234.0303125 196.74539062 233.015625 197.64453125 C226.21668695 203.76002513 219.70164361 210.1743697 213.2109375 216.61383057 C211.79434139 218.01853097 210.37379492 219.41924408 208.953125 220.81982422 C202.8634589 226.90183449 197.36294526 233.27450675 192 240 C191.13648967 241.02744745 190.26809574 242.05085544 189.390625 243.06640625 C182.03525854 251.64319305 175.47649578 260.74992839 169 270 C168.5565625 270.63276855 168.113125 271.26553711 167.65625 271.91748047 C128.20434035 328.6450115 101.89465595 397.00106898 96 466 C95.91121582 467.0101416 95.82243164 468.0202832 95.73095703 469.06103516 C86.74519222 574.45057021 115.35716087 683.95674806 184.765625 769.3671875 C185.50296875 770.23601563 186.2403125 771.10484375 187 772 C187.8705081 773.04367369 188.74026349 774.08797553 189.609375 775.1328125 C195.01257626 781.60414437 200.56966765 787.90333378 206.3046875 794.08203125 C208.96611039 796.96331082 211.5762328 799.8858045 214.1875 802.8125 C217.60685939 806.58242462 221.12213009 809.99508927 225.015625 813.265625 C227.23138271 815.20223213 229.26110492 817.26540932 231.3125 819.375 C236.22559739 824.33831644 241.54101096 828.65509036 247 833 C248.14690211 833.93619219 249.29268747 834.87375373 250.4375 835.8125 C263.94135643 846.83390988 278.15748664 856.86151072 293 866 C293.62245605 866.38333496 294.24491211 866.76666992 294.88623047 867.16162109 C307.2626038 874.7247885 320.06370924 881.45115115 333 888 C333.7312207 888.37366699 334.46244141 888.74733398 335.21582031 889.13232422 C420.44320761 932.36690704 519.04721934 938.08657525 638.73046875 909.52734375 C654.86102126 904.20159457 670.63092193 898.26773676 686 891 C686.97340332 890.54012695 687.94680664 890.08025391 688.94970703 889.60644531 C725.42780273 872.201132 759.82743084 849.62919621 789.59375 822.1953125 C790.93261868 820.97381218 792.27967809 819.76059391 793.65649414 818.58203125 C799.33009746 813.71997876 804.65517839 808.53098593 809.93579102 803.24951172 C811.42641615 801.76106763 812.92487017 800.28082723 814.42382812 798.80078125 C820.73452887 792.52644311 826.44569363 785.96350276 832 779 C832.93485909 777.89823934 833.8762011 776.80189432 834.828125 775.71484375 C885.81026069 717.24984621 916.66690616 640.32616308 927 564 C927.14953125 562.93555664 927.2990625 561.87111328 927.453125 560.77441406 C929.87199466 542.83620177 930.28823415 525.01834415 930.3125 506.9375 C930.31787781 505.32782852 930.31787781 505.32782852 930.32336426 503.68563843 C930.48720455 412.56690551 897.6817704 321.36296065 808.26867676 214.08850098 C807.2111435 213.02738424 806.15266955 211.96720418 805.09326172 210.90795898 C803.49546107 209.30795481 801.90588449 207.70006385 800.31640625 206.09179688 C793.86748679 199.6081741 787.17446544 193.68703997 780 188 C778.97226158 187.136836 777.94884083 186.26844714 776.93359375 185.390625 C758.27593836 169.39000661 737.35433654 156.08509145 716 144 C715.35192383 143.63197266 714.70384766 143.26394531 714.03613281 142.88476562 C683.55198242 125.74223986 650.62623678 114.14882212 617 105 C615.73881348 104.65412842 615.73881348 104.65412842 614.45214844 104.30126953 C564.72001572 90.90141112 508.84588009 88.54688996 458 96 Z " fill="#FCFCFC" transform="translate(0,0)"/>
<path d="M0 0 C1.83157005 1.56113689 3.69059914 3.09115107 5.5859375 4.57421875 C7.71859859 6.32335928 9.40384162 8.05240795 11.16015625 10.16796875 C13.74287947 13.19791677 16.43052516 16.01790926 19.28515625 18.79296875 C24.24907987 23.70666717 28.55985311 29.02510468 32.91015625 34.48046875 C33.82236101 35.58096961 34.73650422 36.6798659 35.65234375 37.77734375 C41.74691891 45.14443511 47.28977295 52.77578628 52.59765625 60.73046875 C53.21020264 61.64812012 53.82274902 62.56577148 54.45385742 63.51123047 C58.77536157 70.07608472 58.77536157 70.07608472 59.91015625 73.48046875 C14.70015625 73.48046875 -30.50984375 73.48046875 -77.08984375 73.48046875 C-77.08984375 113.74046875 -77.08984375 154.00046875 -77.08984375 195.48046875 C-84.67984375 195.48046875 -92.26984375 195.48046875 -100.08984375 195.48046875 C-100.12722656 193.35867188 -100.16460938 191.236875 -100.203125 189.05078125 C-100.24953138 186.96214344 -100.30069465 184.87367147 -100.35229492 182.78515625 C-100.3852473 181.35004016 -100.41336838 179.9148037 -100.4362793 178.47949219 C-100.67539333 163.88844851 -103.14380762 151.9068625 -113.21484375 140.73046875 C-121.45918406 132.98189055 -131.25398722 130.49265249 -142.23828125 130.1640625 C-143.22436874 130.13289085 -143.22436874 130.13289085 -144.2303772 130.10108948 C-146.30843737 130.03626122 -148.38661231 129.97702311 -150.46484375 129.91796875 C-151.88282386 129.87471987 -153.30079282 129.83110366 -154.71875 129.78710938 C-158.17566255 129.68064957 -161.63270081 129.57919891 -165.08984375 129.48046875 C-165.10966309 128.73885498 -165.12948242 127.99724121 -165.14990234 127.2331543 C-165.24507303 123.87773041 -165.35478469 120.52293589 -165.46484375 117.16796875 C-165.49578125 116.00072266 -165.52671875 114.83347656 -165.55859375 113.63085938 C-165.59726562 112.51259766 -165.6359375 111.39433594 -165.67578125 110.2421875 C-165.7229126 108.69470825 -165.7229126 108.69470825 -165.77099609 107.1159668 C-165.91659004 104.25203639 -165.91659004 104.25203639 -168.08984375 101.48046875 C-171.38060371 101.85951083 -171.38060371 101.85951083 -174.08984375 103.48046875 C-174.24790906 105.40525688 -174.34097875 107.33546085 -174.40625 109.265625 C-174.44435791 110.31886963 -174.48246582 111.37211426 -174.52172852 112.45727539 C-174.58638306 114.4796936 -174.58638306 114.4796936 -174.65234375 116.54296875 C-174.79671875 120.81234375 -174.94109375 125.08171875 -175.08984375 129.48046875 C-186.96984375 129.48046875 -198.84984375 129.48046875 -211.08984375 129.48046875 C-211.41984375 120.57046875 -211.74984375 111.66046875 -212.08984375 102.48046875 C-216.69516764 101.02732211 -216.69516764 101.02732211 -219.08984375 102.48046875 C-219.41984375 111.39046875 -219.74984375 120.30046875 -220.08984375 129.48046875 C-223.25513672 129.51914062 -223.25513672 129.51914062 -226.484375 129.55859375 C-228.56645088 129.59719186 -230.64829374 129.64229368 -232.73022461 129.68798828 C-234.15849361 129.71592116 -235.58690925 129.7372709 -237.01538086 129.75146484 C-251.00927095 129.89871728 -262.89066588 132.61684442 -273.28515625 142.5859375 C-284.07748809 154.15483934 -285.36433143 165.58450582 -285.71484375 180.98046875 C-285.83859375 185.76546875 -285.96234375 190.55046875 -286.08984375 195.48046875 C-295.98984375 195.81046875 -305.88984375 196.14046875 -316.08984375 196.48046875 C-315.09984375 199.94546875 -315.09984375 199.94546875 -314.08984375 203.48046875 C-304.84984375 203.81046875 -295.60984375 204.14046875 -286.08984375 204.48046875 C-286.08984375 216.36046875 -286.08984375 228.24046875 -286.08984375 240.48046875 C-299.46484375 240.91796875 -299.46484375 240.91796875 -303.68115234 241.04858398 C-304.77250488 241.08669189 -305.86385742 241.1247998 -306.98828125 241.1640625 C-308.10895996 241.20072021 -309.22963867 241.23737793 -310.38427734 241.27514648 C-313.05697146 241.30642888 -313.05697146 241.30642888 -315.08984375 242.48046875 C-315.08984375 244.46046875 -315.08984375 246.44046875 -315.08984375 248.48046875 C-312.3530565 249.84886238 -310.04719951 249.69681693 -306.98828125 249.796875 C-305.7765625 249.83876953 -304.56484375 249.88066406 -303.31640625 249.92382812 C-302.04539062 249.96314453 -300.774375 250.00246094 -299.46484375 250.04296875 C-298.18609375 250.08615234 -296.90734375 250.12933594 -295.58984375 250.17382812 C-292.42329027 250.28016761 -289.25665622 250.38219708 -286.08984375 250.48046875 C-286.08049805 251.29612305 -286.07115234 252.11177734 -286.06152344 252.95214844 C-286.01696284 256.03906188 -285.95511236 259.12505856 -285.88232422 262.21142578 C-285.84091016 264.17978344 -285.81863922 266.14851451 -285.796875 268.1171875 C-285.43786471 282.26219306 -281.79326508 294.18067208 -271.52734375 304.23046875 C-263.68669659 310.75170333 -253.13631458 313.50027682 -243.13671875 313.796875 C-242.47649719 313.8176561 -241.81627563 313.83843719 -241.13604736 313.85984802 C-239.0374136 313.92497022 -236.93866003 313.98405377 -234.83984375 314.04296875 C-233.41274828 314.08618954 -231.9856647 314.12980495 -230.55859375 314.17382812 C-227.06913653 314.28061286 -223.57954622 314.38198441 -220.08984375 314.48046875 C-220.0647876 315.2576123 -220.03973145 316.03475586 -220.01391602 316.83544922 C-219.89817579 320.34229944 -219.77535023 323.8488662 -219.65234375 327.35546875 C-219.61302734 328.57878906 -219.57371094 329.80210937 -219.53320312 331.0625 C-219.49130859 332.22910156 -219.44941406 333.39570312 -219.40625 334.59765625 C-219.36959229 335.67644043 -219.33293457 336.75522461 -219.29516602 337.86669922 C-219.25607732 340.46116411 -219.25607732 340.46116411 -218.08984375 342.48046875 C-216.4237247 342.52318975 -214.7560149 342.52110707 -213.08984375 342.48046875 C-211.285895 340.67652 -211.85278586 337.91369076 -211.7734375 335.4765625 C-211.73532959 334.3827124 -211.69722168 333.2888623 -211.65795898 332.16186523 C-211.61485596 330.76137939 -211.57175293 329.36089355 -211.52734375 327.91796875 C-211.38296875 323.48359375 -211.23859375 319.04921875 -211.08984375 314.48046875 C-199.20984375 314.48046875 -187.32984375 314.48046875 -175.08984375 314.48046875 C-174.65234375 327.91796875 -174.65234375 327.91796875 -174.52172852 332.16186523 C-174.48362061 333.25571533 -174.4455127 334.34956543 -174.40625 335.4765625 C-174.36959229 336.60247803 -174.33293457 337.72839355 -174.29516602 338.88842773 C-174.3776633 341.40900316 -174.3776633 341.40900316 -173.08984375 342.48046875 C-170.63192346 342.81390426 -170.63192346 342.81390426 -168.08984375 342.48046875 C-165.83114267 339.09241714 -165.79724962 337.70696134 -165.67578125 333.71875 C-165.63710938 332.60048828 -165.5984375 331.48222656 -165.55859375 330.33007812 C-165.52765625 329.16283203 -165.49671875 327.99558594 -165.46484375 326.79296875 C-165.42617188 325.61412109 -165.3875 324.43527344 -165.34765625 323.22070312 C-165.25329984 320.30744898 -165.16771214 317.39420268 -165.08984375 314.48046875 C-164.28466309 314.47112305 -163.47948242 314.46177734 -162.64990234 314.45214844 C-135.48619723 314.77884561 -135.48619723 314.77884561 -112.08984375 302.48046875 C-104.56986487 294.50473357 -101.08359353 285.11974665 -100.7734375 274.30859375 C-100.74226585 273.28496735 -100.74226585 273.28496735 -100.71046448 272.24066162 C-100.64532323 270.07069519 -100.58624971 267.90061251 -100.52734375 265.73046875 C-100.48412478 264.25519654 -100.44050943 262.77993588 -100.39648438 261.3046875 C-100.28893564 257.69673176 -100.18960023 254.08868197 -100.08984375 250.48046875 C-90.18984375 250.15046875 -80.28984375 249.82046875 -70.08984375 249.48046875 C-70.08984375 246.84046875 -70.08984375 244.20046875 -70.08984375 241.48046875 C-79.98984375 241.15046875 -89.88984375 240.82046875 -100.08984375 240.48046875 C-100.08984375 228.60046875 -100.08984375 216.72046875 -100.08984375 204.48046875 C-92.49984375 204.48046875 -84.90984375 204.48046875 -77.08984375 204.48046875 C-77.08984375 205.80046875 -77.08984375 207.12046875 -77.08984375 208.48046875 C-18.01984375 208.48046875 41.05015625 208.48046875 101.91015625 208.48046875 C101.91015625 252.1842731 101.91015625 252.1842731 99.91015625 264.48046875 C99.78125 265.31400879 99.65234375 266.14754883 99.51953125 267.00634766 C90.28497772 325.694928 64.31532845 378.30813286 24.91015625 422.48046875 C24.39388672 423.05990234 23.87761719 423.63933594 23.34570312 424.23632812 C18.12365064 430.06664942 12.89200349 435.8025085 6.87109375 440.828125 C4.64579776 442.70322501 2.53898413 444.68412749 0.41015625 446.66796875 C-26.3295889 470.68082969 -59.67822062 487.80387083 -93.08984375 500.48046875 C-93.85699707 500.77211914 -94.62415039 501.06376953 -95.41455078 501.36425781 C-126.53347215 512.95279631 -159.83560956 518.71284918 -192.96484375 518.66796875 C-194.19838593 518.66706238 -194.19838593 518.66706238 -195.45684814 518.6661377 C-208.1006509 518.64093063 -220.5585552 518.30033427 -233.08984375 516.48046875 C-233.97639648 516.35687988 -234.86294922 516.23329102 -235.77636719 516.10595703 C-257.19172606 513.03117961 -277.86031081 507.07697837 -298.08984375 499.48046875 C-298.08984375 499.15046875 -298.08984375 498.82046875 -298.08984375 498.48046875 C-248.91984375 498.48046875 -199.74984375 498.48046875 -149.08984375 498.48046875 C-149.08984375 454.59046875 -149.08984375 410.70046875 -149.08984375 365.48046875 C-229.27984375 365.48046875 -309.46984375 365.48046875 -392.08984375 365.48046875 C-392.08984375 389.57046875 -392.08984375 413.66046875 -392.08984375 438.48046875 C-399.97873264 431.71856399 -399.97873264 431.71856399 -402.95703125 428.5625 C-403.6104248 427.87124023 -404.26381836 427.17998047 -404.93701172 426.46777344 C-405.60619629 425.75008789 -406.27538086 425.03240234 -406.96484375 424.29296875 C-408.02082764 423.1642334 -408.02082764 423.1642334 -409.09814453 422.01269531 C-414.35614696 416.3532168 -419.34481444 410.57993931 -424.08984375 404.48046875 C-425.28287109 402.98 -425.28287109 402.98 -426.5 401.44921875 C-432.82972882 393.42852876 -438.59209065 385.09003076 -444.08984375 376.48046875 C-444.46463867 375.89604004 -444.83943359 375.31161133 -445.22558594 374.70947266 C-466.65857731 340.98987238 -479.8816928 302.83485198 -486.08984375 263.48046875 C-486.25355469 262.45727539 -486.41726563 261.43408203 -486.5859375 260.37988281 C-490.85178776 232.59015994 -490.3424191 204.22990034 -486.08984375 176.48046875 C-485.91364502 175.28067383 -485.91364502 175.28067383 -485.73388672 174.05664062 C-485.00372524 169.1633896 -484.12000162 164.31926095 -483.08984375 159.48046875 C-482.93322266 158.74296387 -482.77660156 158.00545898 -482.61523438 157.24560547 C-471.63525718 107.02588218 -471.63525718 107.02588218 -460.08984375 95.48046875 C-449.01979691 93.92138424 -437.66834986 94.34530088 -426.52026367 94.36694336 C-424.46911114 94.36722591 -422.4179585 94.36706617 -420.36680603 94.36650085 C-414.83468545 94.36621553 -409.30258684 94.37206926 -403.77047133 94.37907481 C-397.9755882 94.38535263 -392.18070449 94.38591564 -386.38581848 94.38710022 C-375.42854632 94.39020052 -364.4712842 94.3983963 -353.51401645 94.40844971 C-338.69602878 94.42174844 -323.87803833 94.42712127 -309.0600462 94.43295193 C-285.73663786 94.44233712 -262.41325073 94.46226472 -239.08984375 94.48046875 C-239.08984375 49.93046875 -239.08984375 5.38046875 -239.08984375 -40.51953125 C-264.16984375 -40.84953125 -289.24984375 -41.17953125 -315.08984375 -41.51953125 C-314.08984375 -44.51953125 -314.08984375 -44.51953125 -311.81542969 -45.75024414 C-310.82833008 -46.13946045 -309.84123047 -46.52867676 -308.82421875 -46.9296875 C-307.73302734 -47.36039551 -306.64183594 -47.79110352 -305.51757812 -48.23486328 C-279.96892204 -57.8101502 -254.10642073 -64.71705736 -227.08984375 -68.51953125 C-226.27193359 -68.638125 -225.45402344 -68.75671875 -224.61132812 -68.87890625 C-144.37766106 -80.08360789 -60.81740519 -52.29313276 0 0 Z " fill="#FCFCFC" transform="translate(704.08984375,287.51953125)"/>
<path d="M0 0 C78.54 0 157.08 0 238 0 C238 44.22 238 88.44 238 134 C159.46 134 80.92 134 0 134 C0 132.68 0 131.36 0 130 C-7.59 130 -15.18 130 -23 130 C-23 141.88 -23 153.76 -23 166 C-13.92001845 165.88140335 -13.92001845 165.88140335 -4.84057617 165.72973633 C-3.71111572 165.72224365 -2.58165527 165.71475098 -1.41796875 165.70703125 C-0.26063232 165.6913208 0.8967041 165.67561035 2.08911133 165.65942383 C5 166 5 166 6.9128418 167.32299805 C8 169 8 169 7.8125 172.125 C7.544375 173.07375 7.27625 174.0225 7 175 C4.18175808 176.40912096 1.82748718 176.11183553 -1.3203125 176.09765625 C-2.57714844 176.09443359 -3.83398438 176.09121094 -5.12890625 176.08789062 C-6.44761719 176.07951172 -7.76632812 176.07113281 -9.125 176.0625 C-10.46484211 176.05748489 -11.804686 176.05292201 -13.14453125 176.04882812 C-16.42973206 176.03701086 -19.71484397 176.02053617 -23 176 C-22.97905273 176.88147705 -22.95810547 177.7629541 -22.93652344 178.67114258 C-22.86766711 181.9943319 -22.81787538 185.31674516 -22.78027344 188.64038086 C-22.76036391 190.06888924 -22.73322571 191.49731838 -22.69824219 192.92553711 C-22.36991728 206.69104149 -24.87864363 218.43913493 -34.66015625 228.75 C-45.88410916 238.97683636 -59.54751926 240.47255205 -74.1875 240.1875 C-75.53449006 240.17240904 -76.88149668 240.15872852 -78.22851562 240.14648438 C-81.48611152 240.11145646 -84.74283173 240.06233662 -88 240 C-87.97643433 241.10456543 -87.97643433 241.10456543 -87.95239258 242.23144531 C-87.88999528 245.57088529 -87.85099382 248.91020255 -87.8125 252.25 C-87.78736328 253.40886719 -87.76222656 254.56773437 -87.73632812 255.76171875 C-87.72182617 257.43427734 -87.72182617 257.43427734 -87.70703125 259.140625 C-87.68346558 260.68024902 -87.68346558 260.68024902 -87.65942383 262.25097656 C-88.04973988 265.40148465 -88.78039393 266.75960059 -91 269 C-93.5625 269.375 -93.5625 269.375 -96 269 C-98 267 -98 267 -98.22705078 264.29443359 C-98.21134033 262.61341553 -98.21134033 262.61341553 -98.1953125 260.8984375 C-98.19031738 259.80708496 -98.18532227 258.71573242 -98.18017578 257.59130859 C-98.16196777 256.19992676 -98.14375977 254.80854492 -98.125 253.375 C-98.08375 248.96125 -98.0425 244.5475 -98 240 C-109.88 240 -121.76 240 -134 240 C-133.92087726 248.79577728 -133.92087726 248.79577728 -133.81982422 257.59130859 C-133.8148291 258.68266113 -133.80983398 259.77401367 -133.8046875 260.8984375 C-133.79421387 262.01911621 -133.78374023 263.13979492 -133.77294922 264.29443359 C-134 267 -134 267 -136 269 C-138.5 269.3125 -138.5 269.3125 -141 269 C-143.32891212 265.50663182 -143.23551143 264.13992135 -143.1953125 260.01953125 C-143.18886719 258.85615234 -143.18242187 257.69277344 -143.17578125 256.49414062 C-143.15064453 254.67172852 -143.15064453 254.67172852 -143.125 252.8125 C-143.11597656 251.58595703 -143.10695313 250.35941406 -143.09765625 249.09570312 C-143.07406017 246.06360705 -143.04113841 243.03190062 -143 240 C-143.84071045 240.02094727 -144.6814209 240.04189453 -145.54760742 240.06347656 C-148.73278577 240.13254377 -151.91757677 240.18222574 -155.10327148 240.21972656 C-156.4696119 240.23957267 -157.83587059 240.26665914 -159.2019043 240.30175781 C-173.82887742 240.66756663 -186.17605612 238.05525186 -197.15234375 228.03515625 C-205.10376986 219.84681614 -209.14734224 209.59403152 -209.09765625 198.265625 C-209.09443359 196.97011719 -209.09121094 195.67460938 -209.08789062 194.33984375 C-209.07953598 192.97656183 -209.07107104 191.61328058 -209.0625 190.25 C-209.05748168 188.87109535 -209.05291935 187.49218896 -209.04882812 186.11328125 C-209.03704093 182.74214341 -209.02058635 179.37109372 -209 176 C-209.80219971 176.01047363 -210.60439941 176.02094727 -211.4309082 176.03173828 C-215.05807372 176.07325767 -218.68518928 176.09931343 -222.3125 176.125 C-223.57513672 176.14175781 -224.83777344 176.15851563 -226.13867188 176.17578125 C-227.95141602 176.18544922 -227.95141602 176.18544922 -229.80078125 176.1953125 C-230.91622314 176.20578613 -232.03166504 176.21625977 -233.1809082 176.22705078 C-236 176 -236 176 -239 174 C-239.375 171 -239.375 171 -239 168 C-235.45986775 165.63991183 -233.98878045 165.76536356 -229.80078125 165.8046875 C-228.71192627 165.80968262 -227.62307129 165.81467773 -226.5012207 165.81982422 C-225.11894287 165.83803223 -223.73666504 165.85624023 -222.3125 165.875 C-215.7228125 165.936875 -215.7228125 165.936875 -209 166 C-209 154.12 -209 142.24 -209 130 C-218.12487435 130.0791274 -218.12487435 130.0791274 -227.24951172 130.18017578 C-228.38146973 130.1851709 -229.51342773 130.19016602 -230.6796875 130.1953125 C-231.84226074 130.20578613 -233.00483398 130.21625977 -234.20263672 130.22705078 C-237 130 -237 130 -239 128 C-239.125 124.875 -239.125 124.875 -239 122 C-236.18175808 120.59087904 -233.82748718 120.88816447 -230.6796875 120.90234375 C-229.42285156 120.90556641 -228.16601562 120.90878906 -226.87109375 120.91210938 C-225.55238281 120.92048828 -224.23367188 120.92886719 -222.875 120.9375 C-221.53515789 120.94251511 -220.195314 120.94707799 -218.85546875 120.95117188 C-215.57026794 120.96298914 -212.28515603 120.97946383 -209 121 C-209.01571045 120.1435791 -209.0314209 119.2871582 -209.04760742 118.40478516 C-209.0992043 115.1805247 -209.13657546 111.956477 -209.16479492 108.73193359 C-209.17973947 107.34514373 -209.20010278 105.95839993 -209.22631836 104.57177734 C-209.50135416 89.63355837 -206.69042736 78.13762163 -196.5 66.8125 C-188.45303767 59.13981499 -177.83640313 54.85722786 -166.828125 54.90234375 C-165.8044986 54.90446617 -165.8044986 54.90446617 -164.76019287 54.90663147 C-162.59008316 54.91220916 -160.4200783 54.92475746 -158.25 54.9375 C-156.77474108 54.94251789 -155.29948053 54.94708029 -153.82421875 54.95117188 C-150.21611202 54.96217125 -146.60806625 54.97942047 -143 55 C-143.01571045 54.19256348 -143.0314209 53.38512695 -143.04760742 52.55322266 C-143.10979679 48.91055244 -143.14894009 45.26799366 -143.1875 41.625 C-143.21263672 40.35398437 -143.23777344 39.08296875 -143.26367188 37.7734375 C-143.27333984 36.56171875 -143.28300781 35.35 -143.29296875 34.1015625 C-143.3086792 32.98088379 -143.32438965 31.86020508 -143.34057617 30.70556641 C-143.22818604 29.81272949 -143.1157959 28.91989258 -143 28 C-140 26 -140 26 -137.375 26.3125 C-135 27 -135 27 -134 28 C-133.91241997 29.99964982 -133.89303424 32.0023611 -133.90234375 34.00390625 C-133.90484131 35.09775635 -133.90733887 36.19160645 -133.90991211 37.31860352 C-133.91901611 38.71908936 -133.92812012 40.1195752 -133.9375 41.5625 C-133.958125 45.996875 -133.97875 50.43125 -134 55 C-122.12 55 -110.24 55 -98 55 C-98.11857485 46.57820007 -98.11857485 46.57820007 -98.27026367 38.15698242 C-98.27775635 37.10873291 -98.28524902 36.0604834 -98.29296875 34.98046875 C-98.31653442 33.37014771 -98.31653442 33.37014771 -98.34057617 31.72729492 C-98 29 -98 29 -96.6418457 27.1184082 C-95 26 -95 26 -92.4375 26.125 C-90 27 -90 27 -88 30 C-87.77294922 32.63549805 -87.77294922 32.63549805 -87.8046875 35.76171875 C-87.81435547 37.43911133 -87.81435547 37.43911133 -87.82421875 39.15039062 C-87.84935547 40.90125977 -87.84935547 40.90125977 -87.875 42.6875 C-87.88402344 43.86634766 -87.89304687 45.04519531 -87.90234375 46.25976562 C-87.92593577 49.17338026 -87.9588546 52.08658892 -88 55 C-86.6996582 54.98428955 -86.6996582 54.98428955 -85.37304688 54.96826172 C-82.12273153 54.93395187 -78.87250926 54.90899077 -75.62207031 54.89013672 C-74.22164858 54.88014752 -72.82124732 54.86655146 -71.42089844 54.84912109 C-57.56238378 54.68107919 -45.93522795 56.21806524 -35.3125 65.9375 C-27.05958677 74.65949533 -22.85322354 85.33331965 -22.90234375 97.26953125 C-22.90446617 98.29103523 -22.90446617 98.29103523 -22.90663147 99.33317566 C-22.91219702 101.49299647 -22.92474297 103.65271089 -22.9375 105.8125 C-22.94251946 107.28320162 -22.94708159 108.75390488 -22.95117188 110.22460938 C-22.96130123 113.81647951 -22.98088297 117.40812165 -23 121 C-15.41 121 -7.82 121 0 121 C0 81.07 0 41.14 0 0 Z " fill="#FCFDFD" transform="translate(627,362)"/>
<path d="M0 0 C81.84 0 163.68 0 248 0 C248 44.55 248 89.1 248 135 C166.16 135 84.32 135 0 135 C0 90.45 0 45.9 0 0 Z " fill="#FCFDFD" transform="translate(217,247)"/>
<path d="M0 0 C80.19 0 160.38 0 243 0 C243 43.89 243 87.78 243 133 C162.81 133 82.62 133 0 133 C0 89.11 0 45.22 0 0 Z " fill="#FBFDFC" transform="translate(312,653)"/>
<path d="M0 0 C1.13281403 -0.01007584 2.26562805 -0.02015167 3.43276978 -0.03053284 C7.16263815 -0.05893453 10.89210065 -0.06488573 14.62207031 -0.06811523 C17.22747969 -0.07776223 19.83288745 -0.08785515 22.43829346 -0.09837341 C27.89541242 -0.11751594 33.35242231 -0.12202537 38.80957031 -0.12011719 C45.09004178 -0.11831737 51.36973815 -0.14993682 57.65001369 -0.19734818 C63.72198089 -0.24153012 69.79358034 -0.25207524 75.86569977 -0.25028801 C78.43477796 -0.2538141 81.0038627 -0.26700454 83.57283783 -0.29028511 C110.77205775 -0.51368553 110.77205775 -0.51368553 120.63641357 8.41453552 C126.88927497 14.73625477 130.55084726 23.25744922 130.59736633 32.13270569 C130.60809929 33.54330765 130.60809929 33.54330765 130.61904907 34.98240662 C130.62173798 36.00737747 130.62442688 37.03234833 130.62719727 38.08837891 C130.63376846 39.17344727 130.64033966 40.25851562 130.64710999 41.37646484 C130.66683273 44.9704597 130.67850488 48.56441274 130.68847656 52.15844727 C130.69255209 53.38772886 130.69662762 54.61701046 130.70082664 55.88354301 C130.71953555 61.72213929 130.73410017 67.56071919 130.74243861 73.39933974 C130.75122271 79.44863534 130.77047112 85.49767922 130.80688477 91.546875 C130.84539336 98.04839851 130.86413361 104.54969523 130.86864281 111.05132866 C130.87350079 113.52353597 130.88509211 115.99573995 130.9036808 118.46788216 C130.9281466 121.93799975 130.92709287 125.40726315 130.92016602 128.87744141 C130.9393811 130.39364326 130.9393811 130.39364326 130.95898438 131.94047546 C130.88794793 141.76287349 128.34484768 150.52275187 121.43066406 157.71704102 C112.33923759 165.60703638 102.04240626 166.73698326 90.41357422 166.72631836 C88.81413719 166.7363942 88.81413719 166.7363942 87.18238831 166.74667358 C83.68046323 166.76556963 80.1787306 166.76957333 76.67675781 166.77172852 C74.22732466 166.77816143 71.77789226 166.78489016 69.32846069 166.79190063 C64.20267964 166.80385182 59.07696587 166.80758359 53.95117188 166.80639648 C47.40231564 166.80619323 40.85389304 166.83351218 34.30513954 166.8679409 C29.24860677 166.89023976 24.19217794 166.89423313 19.13560104 166.89317703 C16.72201415 166.89552783 14.30842416 166.90432175 11.89488602 166.91984177 C8.51148805 166.93956489 5.12902027 166.93363855 1.74560547 166.92163086 C0.76136093 166.93286987 -0.22288361 166.94410889 -1.23695374 166.95568848 C-11.43914557 166.86425889 -21.20090296 163.75253124 -28.54980469 156.43579102 C-30.79248796 153.56375787 -32.74390888 150.59898431 -34.54980469 147.43579102 C-34.91332031 146.80930664 -35.27683594 146.18282227 -35.65136719 145.53735352 C-38.14492466 139.70459735 -37.70378577 133.22166114 -37.7109375 126.99926758 C-37.7159024 125.96106873 -37.72086731 124.92286987 -37.72598267 123.85321045 C-37.74055581 120.42760549 -37.74739823 117.00204685 -37.75292969 113.57641602 C-37.75868512 111.18756103 -37.76444281 108.79870605 -37.77020264 106.40985107 C-37.78069883 101.40319606 -37.78655054 96.39655704 -37.79003906 91.38989258 C-37.79552083 84.99003048 -37.81954819 78.59038143 -37.84801102 72.19058609 C-37.86667969 67.25591422 -37.87184526 62.32129325 -37.87337494 57.38658905 C-37.87639243 55.02800075 -37.88439025 52.66941315 -37.89756012 50.31085968 C-37.91470881 47.00370795 -37.91271867 43.69707133 -37.90625 40.38989258 C-37.92007217 38.94314148 -37.92007217 38.94314148 -37.93417358 37.46716309 C-37.87175694 27.22564095 -35.26005727 18.29845655 -28.54980469 10.43579102 C-19.87109236 2.15887093 -11.70838857 -0.01507734 0 0 Z " fill="#FBFCFC" transform="translate(464.5498046875,426.564208984375)"/>
<path d="M0 0 C1.02335449 0.14211914 1.02335449 0.14211914 2.06738281 0.28710938 C24.54499913 3.43788839 46.28236577 8.43767207 68 15 C69.10408203 15.33257812 70.20816406 15.66515625 71.34570312 16.0078125 C87.3564735 20.90967873 102.71316605 27.19269981 118 34 C118.86463867 34.38269043 119.72927734 34.76538086 120.62011719 35.15966797 C156.07812256 50.98278509 189.08552064 73.16606009 218 99 C218.72920654 99.64163086 219.45841309 100.28326172 220.2097168 100.94433594 C226.81923028 106.80611861 233.12423181 112.9380253 239.3684082 119.18310547 C241.05857346 120.87107855 242.75660834 122.55085724 244.45507812 124.23046875 C251.10417559 130.84572811 257.16572436 137.64733912 263 145 C263.93456703 146.10200841 264.87592734 147.19834547 265.828125 148.28515625 C315.65610652 205.42659958 346.13583955 280.86523596 356.8125 355.3125 C356.97061661 356.4104187 356.97061661 356.4104187 357.13192749 357.53051758 C359.64604782 375.20228703 360.23897302 392.60800651 360.25 410.4375 C360.25100708 411.56805817 360.25201416 412.69861633 360.25305176 413.86343384 C360.24208774 432.1028838 359.53952802 449.92228221 357 468 C356.86078125 469.02834961 356.7215625 470.05669922 356.578125 471.11621094 C345.85507168 548.18815665 313.71029071 623.73938661 262.3125 682.47705078 C261.02504813 683.9709356 259.777594 685.4989947 258.53125 687.02734375 C251.60354575 695.48816433 243.97545483 703.21288437 236.25 710.9375 C235.70647888 711.48192749 235.16295776 712.02635498 234.60296631 712.58728027 C228.58351194 718.60560005 222.52010058 724.51912184 216 730 C215.05954834 730.80062866 215.05954834 730.80062866 214.10009766 731.61743164 C198.54006262 744.79647066 182.23562715 757.08902526 165 768 C163.93338135 768.67530762 163.93338135 768.67530762 162.84521484 769.36425781 C148.36183285 778.45101521 133.30325992 786.39020836 118 794 C117.14003418 794.42909668 116.28006836 794.85819336 115.39404297 795.30029297 C93.62007254 806.01432628 69.57935616 814.32858051 46 820 C45.05350586 820.23380371 44.10701172 820.46760742 43.13183594 820.70849609 C9.44135374 828.99226784 -24.25703961 833.2235363 -58.9375 833.25 C-59.7495993 833.25067474 -60.56169861 833.25134949 -61.39840698 833.25204468 C-135.71511805 833.15549548 -210.94574179 811.51317798 -274 772 C-275.05622559 771.33919434 -275.05622559 771.33919434 -276.13378906 770.66503906 C-295.9197503 758.21375752 -314.28422046 744.23270532 -332 729 C-332.75023437 728.36320313 -333.50046875 727.72640625 -334.2734375 727.0703125 C-338.65692523 723.31056216 -342.72213572 719.30535703 -346.7734375 715.19140625 C-348.82399377 713.17322719 -350.93102831 711.29686983 -353.125 709.4375 C-356.38823132 706.62856167 -359.1807209 703.63713995 -361.9609375 700.35546875 C-364.02533939 697.97072863 -366.15604892 695.66518919 -368.31005859 693.36181641 C-374.14880731 687.1149929 -379.70064837 680.71629057 -385 674 C-385.75410156 673.05253906 -386.50820313 672.10507812 -387.28515625 671.12890625 C-399.74954256 655.21907982 -410.99402216 638.55802428 -421 621 C-421.78673096 619.62400635 -421.78673096 619.62400635 -422.58935547 618.22021484 C-465.33561703 542.88458354 -481.85171277 455.92017122 -474 370 C-473.90879883 368.99227539 -473.81759766 367.98455078 -473.72363281 366.94628906 C-466.88090908 295.469838 -438.70300508 224.538274 -396 167 C-395.4755127 166.29149902 -394.95102539 165.58299805 -394.41064453 164.85302734 C-386.99910539 154.89008422 -379.24051978 145.28820203 -371 136 C-370.03235718 134.89990601 -370.03235718 134.89990601 -369.04516602 133.77758789 C-363.54243852 127.58032345 -357.80435258 121.64897192 -351.93383789 115.8034668 C-350.43193075 114.30695075 -348.93548938 112.805117 -347.43945312 111.30273438 C-342.13211727 105.9914617 -336.72780081 100.8599766 -331 96 C-330.02417969 95.14277344 -329.04835938 94.28554687 -328.04296875 93.40234375 C-313.64949907 80.97788497 -298.17461201 69.97918524 -282 60 C-281.33355469 59.58830566 -280.66710937 59.17661133 -279.98046875 58.75244141 C-241.43449464 35.12899853 -199.86323016 18.55549026 -156 8 C-154.99549805 7.75556152 -153.99099609 7.51112305 -152.95605469 7.25927734 C-139.6977357 4.09469389 -126.30737145 2.07977068 -112.8125 0.25 C-112.02285858 0.14281647 -111.23321716 0.03563293 -110.41964722 -0.07479858 C-74.13114719 -4.94999435 -36.28958109 -5.08422557 0 0 Z M-317 94 C-318.04367369 94.8705081 -319.08797553 95.74026349 -320.1328125 96.609375 C-331.12768401 105.78486876 -341.55753344 115.46246271 -351.72268677 125.54745483 C-353.1444053 126.95726623 -354.57006788 128.36309679 -355.99584961 129.76879883 C-361.35700511 135.12325348 -366.31289004 140.64048117 -371.0456543 146.55761719 C-372.61459037 148.51834629 -374.20805256 150.4329797 -375.86328125 152.3203125 C-382.69351396 160.1418549 -388.7318111 168.37681471 -394.59179688 176.94482422 C-395.86729014 178.80631907 -397.15798983 180.65605996 -398.453125 182.50390625 C-447.59723877 253.47178607 -470.94173217 339.19970987 -469 425 C-468.98453125 426.02061523 -468.9690625 427.04123047 -468.953125 428.09277344 C-468.68141263 444.89931588 -466.56842881 461.40248512 -464 478 C-463.82484863 479.13453613 -463.64969727 480.26907227 -463.46923828 481.43798828 C-450.53908592 562.66709527 -411.64995007 641.48250421 -352.72265625 699.23828125 C-351 701 -351 701 -348.625 704 C-348.08875 704.66 -347.5525 705.32 -347 706 C-346.34 706 -345.68 706 -345 706 C-345 706.66 -345 707.32 -345 708 C-343.68765591 709.36657834 -343.68765591 709.36657834 -341.875 710.8125 C-338.49029495 713.682011 -335.220814 716.64020889 -331.99023438 719.67993164 C-325.54442977 725.74076877 -319.00222796 731.58198651 -312 737 C-311.29101562 737.54914062 -310.58203125 738.09828125 -309.8515625 738.6640625 C-298.58091726 747.34800228 -287.1287532 755.55762028 -275 763 C-274.35095703 763.39960937 -273.70191406 763.79921875 -273.03320312 764.2109375 C-268.07800459 767.24048945 -263.05608177 770.14251485 -258 773 C-257.06575195 773.52996582 -256.13150391 774.05993164 -255.16894531 774.60595703 C-219.02697644 794.96705657 -180.45173335 809.02608845 -140 818 C-139.13117188 818.20028809 -138.26234375 818.40057617 -137.3671875 818.60693359 C-76.29060777 832.53093957 -11.13110565 827.79926157 49 812 C49.92216309 811.76732422 50.84432617 811.53464844 51.79443359 811.29492188 C95.08601087 800.36805927 136.58451438 779.47189631 173 754 C173.78987305 753.44957031 174.57974609 752.89914062 175.39355469 752.33203125 C185.66328134 745.14108752 195.55259347 737.56092376 205.17089844 729.52050781 C206.83242605 728.139302 208.51013807 726.78183184 210.1953125 725.4296875 C218.79552353 718.41467077 226.59616659 710.58766276 234.4375 702.75 C235.29042633 701.89856918 235.29042633 701.89856918 236.1605835 701.02993774 C242.32065826 694.86863973 248.3943596 688.6776889 254 682 C254.80763794 681.05253906 254.80763794 681.05253906 255.6315918 680.0859375 C264.65505153 669.45290202 273.03963948 658.44810674 281 647 C281.45358887 646.34789551 281.90717773 645.69579102 282.37451172 645.02392578 C325.51886652 582.56840882 352.66308273 503.61284678 353.23828125 427.28125 C353.24802979 426.19680603 353.25777832 425.11236206 353.26782227 423.99505615 C353.4480372 398.7221641 352.94603587 373.98615648 349 349 C348.81808105 347.83307617 348.63616211 346.66615234 348.44873047 345.46386719 C334.90311108 261.72070815 293.42460975 182.78197219 233.37890625 123.11816406 C231.3621951 121.11226374 229.35652639 119.09576002 227.3515625 117.078125 C220.20264116 109.92191097 212.9510724 103.26314472 205 97 C203.88580298 96.05425282 202.77778738 95.10110944 201.6796875 94.13671875 C193.22856339 86.75669811 184.2832152 80.29059977 175 74 C173.84951172 73.21471924 173.84951172 73.21471924 172.67578125 72.41357422 C123.98536361 39.34634224 67.25989479 17.68367786 9.1875 8.6875 C8.00664825 8.50256989 8.00664825 8.50256989 6.80194092 8.31390381 C-14.24786123 5.05799718 -35.20580269 3.60904023 -56.5 3.6875 C-57.5390448 3.68932281 -58.5780896 3.69114563 -59.64862061 3.69302368 C-151.33249553 3.96206868 -246.49308984 34.16327506 -317 94 Z " fill="#0A0A0A" transform="translate(570,96)"/>
<path d="M0 0 C78.54 0 157.08 0 238 0 C238 44.22 238 88.44 238 134 C159.46 134 80.92 134 0 134 C0 132.68 0 131.36 0 130 C-7.59 130 -15.18 130 -23 130 C-23 141.88 -23 153.76 -23 166 C-13.92001845 165.88140335 -13.92001845 165.88140335 -4.84057617 165.72973633 C-3.71111572 165.72224365 -2.58165527 165.71475098 -1.41796875 165.70703125 C-0.26063232 165.6913208 0.8967041 165.67561035 2.08911133 165.65942383 C5 166 5 166 6.9128418 167.32299805 C8 169 8 169 7.8125 172.125 C7.544375 173.07375 7.27625 174.0225 7 175 C4.18175808 176.40912096 1.82748718 176.11183553 -1.3203125 176.09765625 C-2.57714844 176.09443359 -3.83398438 176.09121094 -5.12890625 176.08789062 C-6.44761719 176.07951172 -7.76632812 176.07113281 -9.125 176.0625 C-10.46484211 176.05748489 -11.804686 176.05292201 -13.14453125 176.04882812 C-16.42973206 176.03701086 -19.71484397 176.02053617 -23 176 C-22.97905273 176.88147705 -22.95810547 177.7629541 -22.93652344 178.67114258 C-22.86766711 181.9943319 -22.81787538 185.31674516 -22.78027344 188.64038086 C-22.76036391 190.06888924 -22.73322571 191.49731838 -22.69824219 192.92553711 C-22.36991728 206.69104149 -24.87864363 218.43913493 -34.66015625 228.75 C-45.88410916 238.97683636 -59.54751926 240.47255205 -74.1875 240.1875 C-75.53449006 240.17240904 -76.88149668 240.15872852 -78.22851562 240.14648438 C-81.48611152 240.11145646 -84.74283173 240.06233662 -88 240 C-87.97643433 241.10456543 -87.97643433 241.10456543 -87.95239258 242.23144531 C-87.88999528 245.57088529 -87.85099382 248.91020255 -87.8125 252.25 C-87.78736328 253.40886719 -87.76222656 254.56773437 -87.73632812 255.76171875 C-87.72182617 257.43427734 -87.72182617 257.43427734 -87.70703125 259.140625 C-87.68346558 260.68024902 -87.68346558 260.68024902 -87.65942383 262.25097656 C-88.04973988 265.40148465 -88.78039393 266.75960059 -91 269 C-93.5625 269.375 -93.5625 269.375 -96 269 C-98 267 -98 267 -98.22705078 264.29443359 C-98.21134033 262.61341553 -98.21134033 262.61341553 -98.1953125 260.8984375 C-98.19031738 259.80708496 -98.18532227 258.71573242 -98.18017578 257.59130859 C-98.16196777 256.19992676 -98.14375977 254.80854492 -98.125 253.375 C-98.08375 248.96125 -98.0425 244.5475 -98 240 C-109.88 240 -121.76 240 -134 240 C-133.92087726 248.79577728 -133.92087726 248.79577728 -133.81982422 257.59130859 C-133.8148291 258.68266113 -133.80983398 259.77401367 -133.8046875 260.8984375 C-133.79421387 262.01911621 -133.78374023 263.13979492 -133.77294922 264.29443359 C-134 267 -134 267 -136 269 C-138.5 269.3125 -138.5 269.3125 -141 269 C-143.32891212 265.50663182 -143.23551143 264.13992135 -143.1953125 260.01953125 C-143.18886719 258.85615234 -143.18242187 257.69277344 -143.17578125 256.49414062 C-143.15064453 254.67172852 -143.15064453 254.67172852 -143.125 252.8125 C-143.11597656 251.58595703 -143.10695313 250.35941406 -143.09765625 249.09570312 C-143.07406017 246.06360705 -143.04113841 243.03190062 -143 240 C-143.84071045 240.02094727 -144.6814209 240.04189453 -145.54760742 240.06347656 C-148.73278577 240.13254377 -151.91757677 240.18222574 -155.10327148 240.21972656 C-156.4696119 240.23957267 -157.83587059 240.26665914 -159.2019043 240.30175781 C-173.82887742 240.66756663 -186.17605612 238.05525186 -197.15234375 228.03515625 C-205.10376986 219.84681614 -209.14734224 209.59403152 -209.09765625 198.265625 C-209.09443359 196.97011719 -209.09121094 195.67460938 -209.08789062 194.33984375 C-209.07953598 192.97656183 -209.07107104 191.61328058 -209.0625 190.25 C-209.05748168 188.87109535 -209.05291935 187.49218896 -209.04882812 186.11328125 C-209.03704093 182.74214341 -209.02058635 179.37109372 -209 176 C-209.80219971 176.01047363 -210.60439941 176.02094727 -211.4309082 176.03173828 C-215.05807372 176.07325767 -218.68518928 176.09931343 -222.3125 176.125 C-223.57513672 176.14175781 -224.83777344 176.15851563 -226.13867188 176.17578125 C-227.95141602 176.18544922 -227.95141602 176.18544922 -229.80078125 176.1953125 C-230.91622314 176.20578613 -232.03166504 176.21625977 -233.1809082 176.22705078 C-236 176 -236 176 -239 174 C-239.375 171 -239.375 171 -239 168 C-235.45986775 165.63991183 -233.98878045 165.76536356 -229.80078125 165.8046875 C-228.71192627 165.80968262 -227.62307129 165.81467773 -226.5012207 165.81982422 C-225.11894287 165.83803223 -223.73666504 165.85624023 -222.3125 165.875 C-215.7228125 165.936875 -215.7228125 165.936875 -209 166 C-209 154.12 -209 142.24 -209 130 C-218.12487435 130.0791274 -218.12487435 130.0791274 -227.24951172 130.18017578 C-228.38146973 130.1851709 -229.51342773 130.19016602 -230.6796875 130.1953125 C-231.84226074 130.20578613 -233.00483398 130.21625977 -234.20263672 130.22705078 C-237 130 -237 130 -239 128 C-239.125 124.875 -239.125 124.875 -239 122 C-236.18175808 120.59087904 -233.82748718 120.88816447 -230.6796875 120.90234375 C-229.42285156 120.90556641 -228.16601562 120.90878906 -226.87109375 120.91210938 C-225.55238281 120.92048828 -224.23367188 120.92886719 -222.875 120.9375 C-221.53515789 120.94251511 -220.195314 120.94707799 -218.85546875 120.95117188 C-215.57026794 120.96298914 -212.28515603 120.97946383 -209 121 C-209.01571045 120.1435791 -209.0314209 119.2871582 -209.04760742 118.40478516 C-209.0992043 115.1805247 -209.13657546 111.956477 -209.16479492 108.73193359 C-209.17973947 107.34514373 -209.20010278 105.95839993 -209.22631836 104.57177734 C-209.50135416 89.63355837 -206.69042736 78.13762163 -196.5 66.8125 C-188.45303767 59.13981499 -177.83640313 54.85722786 -166.828125 54.90234375 C-165.8044986 54.90446617 -165.8044986 54.90446617 -164.76019287 54.90663147 C-162.59008316 54.91220916 -160.4200783 54.92475746 -158.25 54.9375 C-156.77474108 54.94251789 -155.29948053 54.94708029 -153.82421875 54.95117188 C-150.21611202 54.96217125 -146.60806625 54.97942047 -143 55 C-143.01571045 54.19256348 -143.0314209 53.38512695 -143.04760742 52.55322266 C-143.10979679 48.91055244 -143.14894009 45.26799366 -143.1875 41.625 C-143.21263672 40.35398437 -143.23777344 39.08296875 -143.26367188 37.7734375 C-143.27333984 36.56171875 -143.28300781 35.35 -143.29296875 34.1015625 C-143.3086792 32.98088379 -143.32438965 31.86020508 -143.34057617 30.70556641 C-143.22818604 29.81272949 -143.1157959 28.91989258 -143 28 C-140 26 -140 26 -137.375 26.3125 C-135 27 -135 27 -134 28 C-133.91241997 29.99964982 -133.89303424 32.0023611 -133.90234375 34.00390625 C-133.90484131 35.09775635 -133.90733887 36.19160645 -133.90991211 37.31860352 C-133.91901611 38.71908936 -133.92812012 40.1195752 -133.9375 41.5625 C-133.958125 45.996875 -133.97875 50.43125 -134 55 C-122.12 55 -110.24 55 -98 55 C-98.11857485 46.57820007 -98.11857485 46.57820007 -98.27026367 38.15698242 C-98.27775635 37.10873291 -98.28524902 36.0604834 -98.29296875 34.98046875 C-98.31653442 33.37014771 -98.31653442 33.37014771 -98.34057617 31.72729492 C-98 29 -98 29 -96.6418457 27.1184082 C-95 26 -95 26 -92.4375 26.125 C-90 27 -90 27 -88 30 C-87.77294922 32.63549805 -87.77294922 32.63549805 -87.8046875 35.76171875 C-87.81435547 37.43911133 -87.81435547 37.43911133 -87.82421875 39.15039062 C-87.84935547 40.90125977 -87.84935547 40.90125977 -87.875 42.6875 C-87.88402344 43.86634766 -87.89304687 45.04519531 -87.90234375 46.25976562 C-87.92593577 49.17338026 -87.9588546 52.08658892 -88 55 C-86.6996582 54.98428955 -86.6996582 54.98428955 -85.37304688 54.96826172 C-82.12273153 54.93395187 -78.87250926 54.90899077 -75.62207031 54.89013672 C-74.22164858 54.88014752 -72.82124732 54.86655146 -71.42089844 54.84912109 C-57.56238378 54.68107919 -45.93522795 56.21806524 -35.3125 65.9375 C-27.05958677 74.65949533 -22.85322354 85.33331965 -22.90234375 97.26953125 C-22.90446617 98.29103523 -22.90446617 98.29103523 -22.90663147 99.33317566 C-22.91219702 101.49299647 -22.92474297 103.65271089 -22.9375 105.8125 C-22.94251946 107.28320162 -22.94708159 108.75390488 -22.95117188 110.22460938 C-22.96130123 113.81647951 -22.98088297 117.40812165 -23 121 C-15.41 121 -7.82 121 0 121 C0 81.07 0 41.14 0 0 Z M6 6 C6 46.26 6 86.52 6 128 C80.91 128 155.82 128 233 128 C233 87.74 233 47.48 233 6 C158.09 6 83.18 6 6 6 Z M-192.7265625 77.03515625 C-198.87394397 85.62029244 -200.45494805 94.52947414 -200.37231445 104.92236328 C-200.37596512 105.96435883 -200.37961578 107.00635437 -200.38337708 108.07992554 C-200.39142409 111.49355829 -200.37792279 114.90670763 -200.36328125 118.3203125 C-200.36276202 120.70824178 -200.36328215 123.09617149 -200.36479187 125.48410034 C-200.36470241 130.47530545 -200.35432558 135.46634814 -200.33618164 140.45751953 C-200.31347103 146.84398755 -200.31295781 153.23021907 -200.31969929 159.61671638 C-200.32304562 164.54273569 -200.31639702 169.46870141 -200.30657005 174.39471054 C-200.30273111 176.749355 -200.3015644 179.10400544 -200.3031559 181.4586525 C-200.30352812 184.75135856 -200.29086303 188.0437649 -200.2746582 191.33642578 C-200.27713562 192.30183289 -200.27961304 193.26723999 -200.28216553 194.26190186 C-200.19861596 204.93760041 -197.54634449 213.65357159 -190.40234375 221.828125 C-184.4822298 227.37035933 -175.60875138 231.11034459 -167.49926758 231.14044189 C-166.57706924 231.14615204 -165.65487091 231.15186218 -164.70472717 231.15774536 C-163.18993019 231.15942215 -163.18993019 231.15942215 -161.64453125 231.16113281 C-160.04640846 231.16858017 -160.04640846 231.16858017 -158.41600037 231.17617798 C-154.88149371 231.19081414 -151.34703202 231.1976058 -147.8125 231.203125 C-145.35449218 231.20887744 -142.89648436 231.21463516 -140.43847656 231.22039795 C-135.27685334 231.23091357 -130.11524571 231.23675185 -124.95361328 231.24023438 C-118.35759032 231.24570514 -111.76177523 231.26970062 -105.16581726 231.29820633 C-100.08355115 231.31688827 -95.00133441 231.32204138 -89.91903687 231.32357025 C-87.48870717 231.32658727 -85.05837815 231.33458347 -82.62808228 231.34775543 C-79.21543915 231.36492368 -75.80329449 231.36290867 -72.390625 231.35644531 C-70.90011879 231.37026749 -70.90011879 231.37026749 -69.37950134 231.3843689 C-58.76074402 231.32177345 -49.17927109 229.04724722 -41 222 C-33.14190668 213.84959249 -31.54560502 204.76044206 -31.61181641 193.76391602 C-31.60655945 192.67651123 -31.60130249 191.58910645 -31.59588623 190.46875 C-31.58275145 186.89698652 -31.59140212 183.32567376 -31.6015625 179.75390625 C-31.59953975 177.25723689 -31.59662664 174.7605681 -31.59286499 172.26390076 C-31.58788624 166.37221003 -31.59834 160.48068101 -31.6143173 154.58901399 C-31.62557499 149.90555002 -31.62159903 145.22227529 -31.60888672 140.53881836 C-31.59144985 134.05745422 -31.5887923 127.57627216 -31.5985527 121.0948925 C-31.6005467 118.63304539 -31.59812373 116.17119043 -31.59111404 113.70935249 C-31.5834503 110.26118811 -31.5951736 106.81360024 -31.61181641 103.36547852 C-31.60270737 101.85566658 -31.60270737 101.85566658 -31.59341431 100.31535339 C-31.68524251 89.98632013 -33.95625196 81.71704748 -41 74 C-48.94496713 66.2315877 -56.89794811 64.39958267 -67.7109375 64.48242188 C-69.4176059 64.47190796 -69.4176059 64.47190796 -71.15875244 64.46118164 C-74.89775421 64.44366108 -78.63599131 64.45520416 -82.375 64.46875 C-84.98616683 64.4660534 -87.59733269 64.46216959 -90.20849609 64.45715332 C-95.67228386 64.44989716 -101.13585463 64.45941081 -106.59960938 64.47851562 C-112.89648773 64.50028075 -119.19284785 64.49322791 -125.48971367 64.47121 C-131.57290328 64.450799 -137.65586502 64.45305058 -143.73907471 64.46473694 C-146.3161832 64.46739836 -148.89330499 64.46415513 -151.47039795 64.45481873 C-155.07697185 64.44461897 -158.68256158 64.46020406 -162.2890625 64.48242188 C-163.34595276 64.47432495 -164.40284302 64.46622803 -165.49176025 64.45788574 C-176.2325132 64.57998187 -185.69382053 68.74543099 -192.7265625 77.03515625 Z " fill="#047946" transform="translate(627,362)"/>
<path d="M0 0 C1.02608871 -0.00902847 2.05217743 -0.01805695 3.10935974 -0.02735901 C5.27868751 -0.04183718 7.44805871 -0.05074218 9.61743164 -0.05444336 C12.89872189 -0.06628045 16.17809376 -0.1154417 19.45898438 -0.16601562 C36.45441784 -0.29814035 48.32762356 1.92108107 61.04296875 13.953125 C70.49144088 23.96168697 72.85505898 35.37830295 72.64453125 48.546875 C72.29223735 57.55478578 69.15612584 64.07472986 63.54296875 71.0078125 C60.17760098 73.12024659 57.29424718 72.5867858 53.37109375 72.37109375 C53.40251465 73.42852783 53.40251465 73.42852783 53.43457031 74.50732422 C53.51858094 77.75343106 53.57002072 80.99930814 53.62109375 84.24609375 C53.65460938 85.3546875 53.688125 86.46328125 53.72265625 87.60546875 C53.81562452 95.50777181 53.12283058 103.10981465 47.69213867 109.27807617 C40.28273544 116.22016986 31.48753253 117.50325705 21.69921875 117.609375 C20.97675964 117.61744675 20.25430054 117.62551849 19.50994873 117.63383484 C17.98712508 117.647599 16.46427158 117.65835506 14.94140625 117.66625977 C13.40159911 117.67776295 11.86183132 117.69818875 10.32226562 117.7277832 C-1.32187638 117.95103743 -11.24062848 117.01271519 -20.62890625 109.37109375 C-25.42606565 103.80482456 -26.76265423 99.65568097 -26.7265625 92.29296875 C-26.72333984 91.1328125 -26.72011719 89.97265625 -26.71679688 88.77734375 C-26.70841797 87.57078125 -26.70003906 86.36421875 -26.69140625 85.12109375 C-26.68689453 83.8990625 -26.68238281 82.67703125 -26.67773438 81.41796875 C-26.6659544 78.40229429 -26.64950478 75.38671877 -26.62890625 72.37109375 C-27.32322754 72.39429688 -28.01754883 72.4175 -28.73291016 72.44140625 C-29.63960449 72.45945312 -30.54629883 72.4775 -31.48046875 72.49609375 C-32.38104004 72.51929688 -33.28161133 72.5425 -34.20947266 72.56640625 C-36.62890625 72.37109375 -36.62890625 72.37109375 -39.00390625 70.37109375 C-39.54015625 69.38109375 -40.07640625 68.39109375 -40.62890625 67.37109375 C-40.974375 66.76652344 -41.31984375 66.16195312 -41.67578125 65.5390625 C-47.1651412 55.45534693 -48.56356101 43.97686098 -45.71875 32.79296875 C-43.32364757 26.16985592 -40.31816163 20.61748838 -35.62890625 15.37109375 C-35.12875 14.7678125 -34.62859375 14.16453125 -34.11328125 13.54296875 C-25.29896843 3.7017457 -12.75863667 0.06994615 0 0 Z " fill="#087C4A" transform="translate(497.62890625,451.62890625)"/>
<path d="M0 0 C1.10843262 -0.01210762 1.10843262 -0.01210762 2.23925781 -0.02445984 C3.80254814 -0.03825176 5.36586796 -0.04899566 6.92919922 -0.05688477 C8.50383539 -0.06833725 10.07843484 -0.0886809 11.65283203 -0.1184082 C25.31362354 -0.3757521 38.56473416 0.79454962 49.3125 10.23828125 C55.94400166 17.10709311 60.38656204 25.01660748 60.8125 34.67578125 C60.6172681 40.15008384 59.36013172 48.19064953 55.3125 52.23828125 C52.48209328 52.33349031 49.67615007 52.36381756 46.84545898 52.35180664 C45.95773804 52.35195267 45.07001709 52.35209869 44.15539551 52.35224915 C41.20643716 52.35154968 38.25754113 52.34375573 35.30859375 52.3359375 C33.26978083 52.33407344 31.23096746 52.33264948 29.19215393 52.33164978 C23.81465426 52.32782366 18.43718142 52.31799257 13.05969238 52.3069458 C7.57690799 52.2967337 2.09411928 52.29215259 -3.38867188 52.28710938 C-14.15495973 52.27637039 -24.92122764 52.25929284 -35.6875 52.23828125 C-36.34117773 50.79839433 -36.9915958 49.35702728 -37.640625 47.91503906 C-38.00317383 47.11253723 -38.36572266 46.3100354 -38.73925781 45.48321533 C-42.04395562 37.65944536 -40.75341019 30.13404251 -38.046875 22.3203125 C-34.34680825 13.93136806 -27.86383981 6.87641634 -19.35546875 3.2421875 C-12.91430718 1.00967876 -6.81719065 0.0720437 0 0 Z " fill="#FAFCFC" transform="translate(500.6875,460.76171875)"/>
<path d="M0 0 C81.84 0 163.68 0 248 0 C248 44.55 248 89.1 248 135 C166.16 135 84.32 135 0 135 C0 90.45 0 45.9 0 0 Z M6 6 C6 46.59 6 87.18 6 129 C83.55 129 161.1 129 241 129 C241 88.41 241 47.82 241 6 C163.45 6 85.9 6 6 6 Z " fill="#168B55" transform="translate(217,247)"/>
<path d="M0 0 C80.19 0 160.38 0 243 0 C243 43.89 243 87.78 243 133 C162.81 133 82.62 133 0 133 C0 89.11 0 45.22 0 0 Z M6 5 C6 45.26 6 85.52 6 127 C82.23 127 158.46 127 237 127 C237 86.74 237 46.48 237 5 C160.77 5 84.54 5 6 5 Z " fill="#0A7D3F" transform="translate(312,653)"/>
<path d="M0 0 C1.65 0.33 3.3 0.66 5 1 C5.75288141 49.89096056 -1.0095502 94.99005643 -21 140 C-21.37382813 140.85078125 -21.74765625 141.7015625 -22.1328125 142.578125 C-40.07840306 183.11708496 -69.53103517 222.19396207 -105 249 C-105.97324219 249.77859375 -106.94648437 250.5571875 -107.94921875 251.359375 C-141.52862547 278.12230362 -181.52225772 296.5742088 -223 307 C-224.07765625 307.27473145 -225.1553125 307.54946289 -226.265625 307.83251953 C-261.0053671 316.55347078 -299.41131179 319.78856895 -335 314 C-335.83354004 313.87109375 -336.66708008 313.7421875 -337.52587891 313.609375 C-362.93846251 309.61074593 -387.58428754 302.72599847 -411 292 C-411 291.67 -411 291.34 -411 291 C-401.13669339 290.45331677 -393.5047089 291.62542455 -384.3125 295.125 C-355.63492979 305.35000096 -326.44130785 309.22705078 -296.125 309.25 C-295.31430054 309.25067474 -294.50360107 309.25134949 -293.66833496 309.25204468 C-279.91551915 309.23397819 -266.56500417 308.39602434 -253 306 C-252.00178223 305.82839355 -251.00356445 305.65678711 -249.97509766 305.47998047 C-193.23038071 295.51648788 -139.19286717 271.24100971 -96.4765625 232.25390625 C-94.79747795 230.7257804 -93.10419177 229.21314142 -91.3984375 227.71484375 C-86.97433002 223.81868867 -82.81359727 219.90440846 -79.01953125 215.390625 C-77.41894859 213.49593141 -75.79290391 211.64220068 -74.13671875 209.796875 C-60.97040449 195.04037755 -49.93720014 179.07665618 -40 162 C-39.57090332 161.26813477 -39.14180664 160.53626953 -38.69970703 159.78222656 C-13.26439878 116.15407571 -1.62852862 67.93918495 -0.4375 17.6875 C-0.39418595 15.964185 -0.35056819 14.2408776 -0.30664062 12.51757812 C-0.20093287 8.34513131 -0.09930969 4.1726038 0 0 Z " fill="#D2D3D3" transform="translate(806,496)"/>
<path d="M0 0 C77.55 0 155.1 0 235 0 C235 43.56 235 87.12 235 132 C157.45 132 79.9 132 0 132 C-1.01896456 128.94310631 -1.11024992 126.93857413 -1.08229065 123.74189758 C-1.0717621 122.11097026 -1.0717621 122.11097026 -1.06102085 120.44709492 C-1.04805438 119.24937049 -1.03508791 118.05164606 -1.02172852 116.81762695 C-1.01193686 115.5385934 -1.00214521 114.25955984 -0.99205685 112.94176769 C-0.96545106 109.47980265 -0.93268111 106.01792154 -0.89864349 102.55602264 C-0.86764327 99.30833233 -0.84218975 96.06060062 -0.81628418 92.81286621 C-0.73726859 83.3126961 -0.64933864 73.81260182 -0.5625 64.3125 C-0.376875 43.089375 -0.19125 21.86625 0 0 Z M4 5 C4 45.26 4 85.52 4 127 C78.91 127 153.82 127 231 127 C231 86.74 231 46.48 231 5 C156.09 5 81.18 5 4 5 Z " fill="#158A54" transform="translate(629,363)"/>
<path d="M0 0 C7.50906352 4.66422007 11.68850917 11.68162936 14.0234375 20.0390625 C16.70281339 34.06354349 15.82466584 52.12532451 8.08203125 64.37109375 C4.40038647 69.23965685 -0.37566727 71.73304802 -6.2265625 73.1015625 C-14.48198231 73.99208884 -21.04681609 72.85639536 -27.9765625 68.2890625 C-36.74915735 59.76015084 -38.28541257 49.0508807 -38.51953125 37.32299805 C-38.60243512 25.24079487 -38.43867897 14.74633828 -30.4140625 4.9765625 C-22.46912386 -2.95382497 -10.36649093 -4.68023008 0 0 Z " fill="#178C55" transform="translate(436.2265625,683.8984375)"/>
<path d="M0 0 C0.74991211 0.00757324 1.49982422 0.01514648 2.27246094 0.02294922 C8.72756226 0.21578587 13.34368891 1.31875558 18.0703125 5.8984375 C23.33414593 11.82400999 24.05772599 16.46384503 23.953125 24.23046875 C23.22046253 30.24562764 19.73039169 33.30627598 15.5625 37.4375 C16.305 37.664375 17.0475 37.89125 17.8125 38.125 C22.24696437 40.2414489 24.7262666 43.96462377 26.5625 48.4375 C27.45947377 55.57552286 27.46505012 61.94905266 23.05078125 67.85546875 C18.20427884 73.00726265 12.54808351 75.18378441 5.609375 75.7734375 C-3.63395176 75.97005855 -12.21844633 76.03104911 -19.5234375 69.6015625 C-24.03370859 64.7967431 -26.08091978 60.64672197 -26.8125 54.0625 C-26.14049766 47.56647739 -23.61893489 43.18873698 -18.6875 38.9375 C-17.61497787 38.09029764 -16.5353393 37.25162802 -15.4375 36.4375 C-15.93121094 35.90640625 -16.42492187 35.3753125 -16.93359375 34.828125 C-17.57425781 34.12171875 -18.21492187 33.4153125 -18.875 32.6875 C-19.83212891 31.64335937 -19.83212891 31.64335937 -20.80859375 30.578125 C-24.02872002 26.34640031 -23.80813255 21.59630441 -23.4375 16.4375 C-22.34779494 11.09794522 -19.59603032 6.9212181 -15.4375 3.4375 C-10.17823387 0.65926359 -5.90627909 -0.08324286 0 0 Z " fill="#188C55" transform="translate(269.4375,277.5625)"/>
<path d="M0 0 C0.73605469 0.62390625 1.47210937 1.2478125 2.23046875 1.890625 C15.50793929 13.49984193 28.3463868 26.03607371 38.75830078 40.30517578 C40.04582795 42.06255164 41.36186767 43.7955741 42.68359375 45.52734375 C48.01847934 52.57961753 52.94478525 59.84921271 57.6875 67.3125 C58.21722412 68.14354248 58.74694824 68.97458496 59.29272461 69.83081055 C59.77749268 70.60465088 60.26226074 71.37849121 60.76171875 72.17578125 C61.19444092 72.86583252 61.62716309 73.55588379 62.07299805 74.2668457 C63 76 63 76 63 78 C59.8046875 78.453125 59.8046875 78.453125 56 78 C53.81557336 75.9167763 52.54042916 73.394375 51.125 70.75 C50.26866041 69.26961786 49.40792626 67.79176969 48.54296875 66.31640625 C48.11806152 65.58180176 47.6931543 64.84719727 47.25537109 64.09033203 C41.8504316 55.09050862 34.72775085 47.02402132 28 39 C27.52626953 38.43458496 27.05253906 37.86916992 26.56445312 37.28662109 C21.06340704 30.73952667 15.58468205 24.30275151 9.328125 18.453125 C8 17 8 17 8 15 C7.01 14.67 6.02 14.34 5 14 C5 13.34 5 12.68 5 12 C4.43410156 11.75765625 3.86820313 11.5153125 3.28515625 11.265625 C0.55690126 9.75459147 -1.32159248 7.92256524 -3.5625 5.75 C-44.20955131 -32.25414499 -99.26104269 -53.34559458 -153.5 -61.75 C-154.23959961 -61.86569336 -154.97919922 -61.98138672 -155.74121094 -62.10058594 C-168.30742414 -63.91307351 -181.00997237 -64.20813997 -193.6875 -64.1875 C-194.38343262 -64.18689575 -195.07936523 -64.1862915 -195.79638672 -64.18566895 C-207.30221068 -64.15872476 -218.60404204 -63.652369 -230 -62 C-230.91587891 -61.87109375 -231.83175781 -61.7421875 -232.77539062 -61.609375 C-254.23690274 -58.51685558 -274.81273366 -53.22728562 -295.375 -46.4375 C-296.08123505 -46.20602264 -296.78747009 -45.97454529 -297.5151062 -45.73605347 C-304.05348975 -43.58139032 -310.4354431 -41.43020889 -316.53125 -38.1796875 C-320.5302222 -36.069281 -323.5350218 -35.44335222 -328.125 -35.6875 C-329.24132812 -35.73261719 -330.35765625 -35.77773437 -331.5078125 -35.82421875 C-332.33023437 -35.88222656 -333.15265625 -35.94023437 -334 -36 C-306.10312319 -58.55299456 -257.3097369 -65.59088473 -223 -70 C-222.19578613 -70.1045752 -221.39157227 -70.20915039 -220.56298828 -70.31689453 C-142.53226596 -79.32725887 -59.22085131 -50.47126986 0 0 Z " fill="#D3D3D4" transform="translate(707,282)"/>
<path d="M0 0 C4.62 0 9.24 0 14 0 C14 15.51 14 31.02 14 47 C16.97 47 19.94 47 23 47 C23 50.63 23 54.26 23 58 C20.03 58 17.06 58 14 58 C14 63.28 14 68.56 14 74 C9.71 74 5.42 74 1 74 C1 68.72 1 63.44 1 58 C-9.89 58 -20.78 58 -32 58 C-32 43.13737979 -32 43.13737979 -26.4375 36.5625 C-25.24624295 35.04199853 -24.05892061 33.51840834 -22.875 31.9921875 C-22.2459375 31.19522461 -21.616875 30.39826172 -20.96875 29.57714844 C-17.41573575 24.9261541 -14.19608613 20.04703493 -10.9375 15.1875 C-9.6987422 13.34622307 -8.45797812 11.50629369 -7.21484375 9.66796875 C-6.69011475 8.88703857 -6.16538574 8.1061084 -5.62475586 7.30151367 C-3.85291028 4.79164316 -1.9192363 2.39904538 0 0 Z " fill="#1A8D57" transform="translate(682,393)"/>
<path d="M0 0 C14.19 0 28.38 0 43 0 C43 3.63 43 7.26 43 11 C32.11 11 21.22 11 10 11 C9.67 16.28 9.34 21.56 9 27 C10.0725 26.505 11.145 26.01 12.25 25.5 C19.59890194 22.79934346 27.17168944 22.80232417 34.375 25.9375 C39.92994028 29.0683037 43.66127827 33.88527861 45.63671875 39.95703125 C47.14074312 48.41514677 46.2450532 57.28428129 41.96875 64.81640625 C37.79812608 70.43829457 30.94912028 73.27237852 24.2734375 74.75 C17.31601963 75.51507688 9.87849425 75.01458144 4 71 C-1.62528761 66.04438949 -4.96334722 61.45353351 -6 54 C5.6501649 53.07890351 5.6501649 53.07890351 8.90625 55.30078125 C10.1875 56.9375 10.1875 56.9375 12 60 C14.573329 61.2866645 16.50223038 61.16824551 19.375 61.1875 C20.33148437 61.20167969 21.28796875 61.21585937 22.2734375 61.23046875 C25.0941171 60.99204454 26.66615311 60.57664323 29 59 C31.63560985 54.19942491 32.61756151 50.55805361 32 45 C30.61563877 41.61600588 29.38536445 40.26608498 26.375 38.1875 C22.10328762 36.68449009 18.48054925 36.24405496 14 37 C12.16696266 37.9030044 12.16696266 37.9030044 10.5 39.0625 C6.89288577 41.4560057 4.18781096 41.12078811 0.015625 40.45703125 C-2 40 -2 40 -5 39 C-4.52831075 25.81628545 -2.16602604 12.99615627 0 0 Z " fill="#178C55" transform="translate(716,393)"/>
<path d="M0 0 C2.31 0 4.62 0 7 0 C6.46632812 1.16789062 5.93265625 2.33578125 5.3828125 3.5390625 C-11.71056268 41.72358227 -21.21645643 81.72680334 -21.25 123.625 C-21.25067474 124.39045135 -21.25134949 125.15590271 -21.25204468 125.94454956 C-21.23235252 140.12897547 -20.24338887 153.97881957 -18 168 C-17.83371094 169.05413086 -17.66742188 170.10826172 -17.49609375 171.19433594 C-10.79414895 212.31200837 4.18046166 252.68441251 28 287 C28.49532227 287.72300293 28.99064453 288.44600586 29.50097656 289.19091797 C38.19746115 301.87122073 47.56855476 313.61450085 58.06640625 324.84765625 C61.4662027 328.48704684 64.78395645 332.19754446 68.0859375 335.92578125 C69.6760805 337.64897703 71.29230149 339.15959123 73.0625 340.6875 C75 343 75 343 75.3125 346.8125 C75.209375 347.864375 75.10625 348.91625 75 350 C51.1606132 336.72236685 33.24352504 308.41496906 19 286 C18.36481445 285.00444092 18.36481445 285.00444092 17.71679688 283.98876953 C-1.48287702 253.55378726 -14.05498113 219.9975309 -21.25 184.875 C-21.49637207 183.68527588 -21.74274414 182.49555176 -21.99658203 181.26977539 C-25.56094584 163.15852115 -26.34902448 145.33362214 -26.31567383 126.90429688 C-26.3125167 123.26922487 -26.336058 119.63497205 -26.36132812 116 C-26.41413639 96.77681257 -24.87538513 77.9834537 -20.375 59.25 C-20.12411621 58.18837646 -19.87323242 57.12675293 -19.61474609 56.03295898 C-14.88300362 36.74581167 -8.09692948 18.11329456 0 0 Z " fill="#D3D3D3" transform="translate(237,383)"/>
<path d="M0 0 C13.86 0 27.72 0 42 0 C42 3.63 42 7.26 42 11 C31.11 11 20.22 11 9 11 C8.67 16.28 8.34 21.56 8 27 C9.258125 26.505 10.51625 26.01 11.8125 25.5 C19.30063512 23.05872711 26.10827048 22.79085209 33.375 26.0625 C39.21224059 29.35173874 41.88244537 33.17950497 44.3125 39.3125 C46.22357854 49.56283035 44.51242452 57.78571046 39.375 66.875 C32.08057697 73.40158902 24.43268847 74.9969531 14.8515625 74.48046875 C7.59847422 73.57567173 2.41972477 70.87874216 -2.5 65.5 C-5.67654721 61.36330998 -7 58.28206908 -7 53 C-2.61624537 52.6579151 1.62822144 52.45692192 6 53 C8.5625 55.875 8.5625 55.875 10 59 C14.10614997 61.64912902 18.26721563 61.67259674 23 61 C26.15689734 59.39285226 28.19415756 58.02561766 30.375 55.25 C31.65916889 50.62699199 31.6348239 46.58705974 29.875 42.1875 C27.09835391 38.94807957 24.30651501 37.33607903 20.04296875 36.71484375 C15.30705955 36.50657241 12.11108442 37.49324121 8 40 C7.505 40.495 7.505 40.495 7 41 C5.35066772 40.93600474 3.70384869 40.79926084 2.0625 40.625 C0.71865234 40.48964844 0.71865234 40.48964844 -0.65234375 40.3515625 C-3 40 -3 40 -5 39 C-5.14879952 33.07507352 -4.6213881 27.5846188 -3.625 21.75 C-3.49867188 20.98042969 -3.37234375 20.21085937 -3.2421875 19.41796875 C-2.83465202 16.94422836 -2.41712601 14.47214129 -2 12 C-1.34 8.04 -0.68 4.08 0 0 Z " fill="#178B55" transform="translate(309,279)"/>
<path d="M0 0 C20.13 0 40.26 0 61 0 C61 24 61 24 58 30 C53.01351134 34.81454077 46.67473894 35.31512242 40.0390625 35.3359375 C39.289664 35.3425943 38.5402655 35.3492511 37.76815796 35.35610962 C36.18986447 35.36618912 34.61152877 35.3709281 33.03320312 35.37060547 C30.63859733 35.37497519 28.24584253 35.41133146 25.8515625 35.44921875 C11.5041218 35.55538365 11.5041218 35.55538365 5 31 C-3.73993131 21.81186708 0 14.79348855 0 0 Z " fill="#FCFDFC" transform="translate(480,524)"/>
<path d="M0 0 C4.61934518 2.84874228 7.70674151 6.98501793 9.05859375 12.26953125 C9.71447371 18.35984514 9.0881838 23.86950882 6.05859375 29.26953125 C3.87109375 31.26953125 3.87109375 31.26953125 2.05859375 32.26953125 C3.45078125 33.32140625 3.45078125 33.32140625 4.87109375 34.39453125 C8.09897405 36.83337414 9.54079343 39.53547384 11.05859375 43.26953125 C11.45703125 46.70703125 11.45703125 46.70703125 11.43359375 50.26953125 C11.44519531 52.03296875 11.44519531 52.03296875 11.45703125 53.83203125 C10.84673388 59.0973419 9.07359614 62.27759709 5.30859375 65.95703125 C-1.27704058 70.64296337 -6.45655193 71.7762496 -14.37890625 71.70703125 C-15.18650391 71.72701172 -15.99410156 71.74699219 -16.82617188 71.76757812 C-23.62133833 71.76210257 -28.7912556 69.9879045 -33.96484375 65.5234375 C-38.46556877 59.89102729 -39.94140625 56.75894374 -39.94140625 49.26953125 C-35.65140625 49.26953125 -31.36140625 49.26953125 -26.94140625 49.26953125 C-26.54953125 50.17703125 -26.15765625 51.08453125 -25.75390625 52.01953125 C-23.71763448 55.67077718 -22.62257467 57.27556502 -18.94140625 59.26953125 C-13.68216427 60.04574467 -9.43557155 60.16603043 -4.81640625 57.39453125 C-2.38233994 54.63592277 -1.98009282 53.67960894 -1.62890625 49.95703125 C-1.99121756 45.68175779 -2.90286917 44.22125298 -5.94140625 41.26953125 C-9.10386166 40.21537945 -11.81088843 39.95677453 -15.12890625 39.70703125 C-16.21558594 39.62324219 -17.30226563 39.53945313 -18.421875 39.453125 C-19.25332031 39.39253906 -20.08476562 39.33195313 -20.94140625 39.26953125 C-20.94140625 35.63953125 -20.94140625 32.00953125 -20.94140625 28.26953125 C-19.71164062 28.07037109 -19.71164062 28.07037109 -18.45703125 27.8671875 C-16.84054687 27.60228516 -16.84054687 27.60228516 -15.19140625 27.33203125 C-14.1240625 27.15800781 -13.05671875 26.98398437 -11.95703125 26.8046875 C-9.57793032 26.38248954 -7.27225414 25.89750241 -4.94140625 25.26953125 C-3.77971657 19.15991675 -3.77971657 19.15991675 -5.25390625 13.26953125 C-7.22434914 10.93419153 -8.16899551 10.36372768 -11.18359375 9.99609375 C-16.84459864 9.65355025 -16.84459864 9.65355025 -21.50390625 12.51953125 C-23.13431398 15.37679833 -23.13431398 15.37679833 -23.94140625 19.26953125 C-28.56140625 19.26953125 -33.18140625 19.26953125 -37.94140625 19.26953125 C-37.56504336 13.05954349 -37.1458016 9.12075665 -32.94140625 4.26953125 C-23.31495728 -3.99834629 -11.76631437 -5.46776185 0 0 Z " fill="#188C55" transform="translate(378.94140625,684.73046875)"/>
<path d="M0 0 C79.53 0 159.06 0 241 0 C241 42.9 241 85.8 241 130 C174.67 130 108.34 130 40 130 C40 129.67 40 129.34 40 129 C29.11 128.67 18.22 128.34 7 128 C7 127.67 7 127.34 7 127 C82.57 126.67 158.14 126.34 236 126 C236 85.74 236 45.48 236 4 C165.38 3.67 94.76 3.34 22 3 C22 2.67 22 2.34 22 2 C14.74 1.67 7.48 1.34 0 1 C0 0.67 0 0.34 0 0 Z " fill="#1F915E" transform="translate(313,654)"/>
<path d="M0 0 C81.84 0 163.68 0 248 0 C248 44.55 248 89.1 248 135 C166.16 135 84.32 135 0 135 C0 90.45 0 45.9 0 0 Z M1 2 C1 45.23 1 88.46 1 133 C81.85 133 162.7 133 246 133 C246 89.77 246 46.54 246 2 C165.15 2 84.3 2 1 2 Z " fill="#319261" transform="translate(217,247)"/>
<path d="M0 0 C3.70113791 2.28484624 5.73584387 4.26266436 7.4375 8.375 C8.26400035 15.469128 8.49959517 22.55009418 4.7109375 28.82421875 C1.05719711 33.27371241 -3.31916466 35.03853154 -8.859375 35.61328125 C-14.93679453 35.79715222 -19.62290839 35.10536133 -24.5625 31.375 C-29.63645712 25.00002823 -30.34255236 19.30553237 -29.5625 11.375 C-27.93258714 6.02463389 -25.31761513 2.42315073 -20.5625 -0.625 C-14.18996958 -2.74917681 -6.17437449 -2.80759293 0 0 Z " fill="#178B54" transform="translate(389.5625,279.625)"/>
<path d="M0 0 C4.27731593 2.2534567 7.10410909 5.41146417 8.9375 9.875 C11.92852634 20.78670721 10.7477133 33.93445151 6.6875 44.375 C4.72051116 47.43476042 3.14063567 49.14416983 0 51 C-4.47275104 51.73190472 -6.37423585 51.38508563 -10.25 49 C-15.94100562 43.64286671 -16.78654598 35.50974389 -17.23828125 28.08203125 C-17.49004956 18.29724394 -17.3425942 9.18698752 -10.75 1.3125 C-7.04978505 -0.45351168 -3.95622524 -0.96841187 0 0 Z " fill="#FBFDFC" transform="translate(428,694)"/>
<path d="M0 0 C1.03543945 -0.0299707 1.03543945 -0.0299707 2.09179688 -0.06054688 C7.2359604 -0.05567089 10.10046301 1.2373932 14.0625 4.4375 C18.83121506 9.72175182 19.36467479 13.73265079 19.2734375 20.6484375 C18.8696257 25.98772681 17.17425401 29.70405086 13.125 33.3125 C7.08257953 37.50519991 0.21500098 37.04807935 -6.9375 36.4375 C-11.16853585 35.22654836 -13.53141212 32.91647544 -16.375 29.5625 C-19.15101859 23.97425387 -18.7435031 17.46862667 -17.9375 11.4375 C-14.74829181 2.81095327 -8.97878896 -0.09170537 0 0 Z " fill="#178B54" transform="translate(422.9375,316.5625)"/>
<path d="M0 0 C1.29550781 -0.03738281 2.59101562 -0.07476562 3.92578125 -0.11328125 C9.60902313 0.52999327 12.40311595 2.78836426 16.03125 7.09375 C18.00230531 10.92429146 18.22238999 13.5210308 18.1875 17.8125 C18.1978125 19.0809375 18.208125 20.349375 18.21875 21.65625 C17.40736046 27.2405192 15.06847223 30.26972505 10.625 33.625 C4.83973603 36.94844951 -0.77540312 36.95237456 -7.3125 36.3125 C-10.875 34.5 -10.875 34.5 -13.3125 32.3125 C-13.89 31.85875 -14.4675 31.405 -15.0625 30.9375 C-19.16485538 25.604438 -18.9243595 18.71790414 -18.3125 12.3125 C-16.64425403 7.57116935 -14.08091024 4.60985896 -10.3125 1.3125 C-6.74809582 0.12436527 -3.75775218 0.07062047 0 0 Z " fill="#168A53" transform="translate(827.3125,430.6875)"/>
<path d="M0 0 C4.32246215 2.55819189 6.32277177 5.11112506 8.3125 9.6875 C9.9175721 16.37530041 9.14101289 21.76585914 6.0625 27.8125 C3.40666471 31.94684154 0.78125133 34.31448371 -3.9375 35.8125 C-9.46763717 36.45259663 -14.3461852 36.55132473 -19.4375 34.1875 C-24.55944337 29.3216538 -26.97792808 24.66203772 -27.3125 17.6875 C-27.21967404 11.44753301 -24.84551931 5.7507325 -20.43359375 1.29296875 C-14.61482616 -2.67501011 -6.42053002 -2.40252091 0 0 Z " fill="#178B54" transform="translate(482.9375,684.1875)"/>
<path d="M0 0 C4.88006234 2.62528299 8.1174457 6.04374335 9.86328125 11.28125 C10.492373 18.91285489 10.90287611 25.23373616 5.86328125 31.28125 C1.76117407 35.05518861 -2.06491685 36.62031842 -7.63671875 36.90625 C-13.20852065 36.62031842 -17.03461157 35.05518861 -21.13671875 31.28125 C-25.59278982 25.93396472 -25.69664101 21.16631894 -25.453125 14.30859375 C-24.89335669 8.95278586 -23.07949489 5.9505548 -19.13671875 2.46875 C-13.66068352 -1.52419236 -6.46380502 -2.17429639 0 0 Z " fill="#168A53" transform="translate(791.13671875,392.71875)"/>
<path d="M0 0 C4.6610437 2.7550407 7.23318963 5.77670447 9.1640625 10.8671875 C10.10068118 17.42351829 9.83108787 23.24017686 6.4765625 29.0546875 C3.15162271 32.72483962 -0.21088735 34.88116281 -5.23046875 35.2578125 C-15.88353948 35.41861357 -15.88353948 35.41861357 -20.5234375 32.0546875 C-24.24570469 28.12562769 -26.37591406 24.45501677 -26.7109375 19.00390625 C-26.28273388 11.55494752 -25.25590493 6.16960575 -19.5234375 1.0546875 C-14.08428193 -2.49309864 -5.92089889 -2.21804572 0 0 Z " fill="#178B54" transform="translate(525.5234375,720.9453125)"/>
<path d="M0 0 C1.33998047 0.06960938 1.33998047 0.06960938 2.70703125 0.140625 C3.60808594 0.17671875 4.50914062 0.2128125 5.4375 0.25 C6.46810547 0.31960938 6.46810547 0.31960938 7.51953125 0.390625 C6.12537489 4.17299089 4.37731136 7.44515193 2.24609375 10.86328125 C1.26503662 12.44520264 1.26503662 12.44520264 0.26416016 14.05908203 C-0.08153015 14.61259338 -0.42722046 15.16610474 -0.78338623 15.73638916 C-2.60701251 18.6565791 -4.41805659 21.58456063 -6.23046875 24.51171875 C-6.59417572 25.09840332 -6.95788269 25.68508789 -7.33261108 26.28955078 C-10.55920141 31.50072324 -13.7176797 36.75067167 -16.85546875 42.015625 C-20.50852631 48.13421938 -24.20369206 54.22250077 -27.98046875 60.265625 C-28.57674072 61.22009521 -28.57674072 61.22009521 -29.18505859 62.19384766 C-29.92566415 63.37316597 -30.67257714 64.54855481 -31.42675781 65.71923828 C-32.4781842 67.38700126 -33.45628302 69.10025161 -34.43359375 70.8125 C-36.48046875 73.390625 -36.48046875 73.390625 -39.05859375 73.9765625 C-39.9403125 73.90695312 -40.82203125 73.83734375 -41.73046875 73.765625 C-43.06851563 73.68441406 -43.06851563 73.68441406 -44.43359375 73.6015625 C-45.1090625 73.53195312 -45.78453125 73.46234375 -46.48046875 73.390625 C-44.74888813 68.39606588 -42.02293817 64.0726731 -39.29296875 59.578125 C-38.76832031 58.70865234 -38.24367188 57.83917969 -37.703125 56.94335938 C-32.90986364 49.03111837 -27.99894217 41.19332235 -23.07641602 33.36108398 C-18.36221524 25.84621137 -13.76223415 18.26946134 -9.24804688 10.6328125 C-8.79365234 9.86710937 -8.33925781 9.10140625 -7.87109375 8.3125 C-7.47954102 7.64831055 -7.08798828 6.98412109 -6.68457031 6.29980469 C-3.01033348 0.47406826 -3.01033348 0.47406826 0 0 Z " fill="#178B54" transform="translate(824.48046875,392.609375)"/>
<path d="M0 0 C2.55006793 -0.00942309 4.77763685 0.19958713 7.25537109 0.78271484 C5.97379251 4.22118868 4.48815784 7.20057535 2.48974609 10.27490234 C1.93665771 11.132854 1.38356934 11.99080566 0.8137207 12.87475586 C0.21696533 13.79313232 -0.37979004 14.71150879 -0.99462891 15.65771484 C-6.03533452 23.49337059 -10.98238754 31.3747013 -15.80712891 39.34521484 C-21.06685084 48.03405827 -26.38024353 56.68701627 -31.74682617 65.31030273 C-32.25785889 66.13264404 -32.7688916 66.95498535 -33.29541016 67.80224609 C-33.7456958 68.52516846 -34.19598145 69.24809082 -34.65991211 69.99291992 C-35.78179656 71.78944678 -35.78179656 71.78944678 -36.74462891 73.78271484 C-40.04462891 73.78271484 -43.34462891 73.78271484 -46.74462891 73.78271484 C-45.05711522 68.80899029 -42.25918931 64.66450083 -39.43212891 60.28271484 C-38.33498034 58.56316936 -37.23865372 56.84309923 -36.14306641 55.12255859 C-35.57813477 54.23681152 -35.01320313 53.35106445 -34.43115234 52.43847656 C-32.30642025 49.09266943 -30.20612302 45.73238596 -28.11816406 42.36352539 C-27.07042698 40.67328329 -26.01794777 38.98597223 -24.9609375 37.30151367 C-22.06278426 32.65479943 -19.26497177 27.97087367 -16.59443665 23.19050598 C-15.13209566 20.58112906 -13.64183424 17.9881779 -12.14974976 15.39572144 C-11.42639685 14.12096928 -10.71650619 12.83847532 -10.02090454 11.54837036 C-4.47439479 1.27601047 -4.47439479 1.27601047 0 0 Z " fill="#178A54" transform="translate(514.74462890625,682.21728515625)"/>
<path d="M0 0 C1.38813006 0.12563681 2.7752242 0.27717255 4.15234375 0.4921875 C2.41311168 5.49876306 -0.30688534 9.85409537 -3.03515625 14.3671875 C-3.55835449 15.23706299 -4.08155273 16.10693848 -4.62060547 17.00317383 C-9.36422093 24.82382285 -14.36500408 32.46582424 -19.39892578 40.1015625 C-23.230309 45.93722136 -26.90599719 51.82964821 -30.41015625 57.8671875 C-30.81306885 58.55377441 -31.21598145 59.24036133 -31.63110352 59.94775391 C-33.29508647 62.7885287 -34.92145721 65.6303869 -36.47265625 68.53515625 C-38.86681476 72.73143951 -38.86681476 72.73143951 -40.84765625 74.4921875 C-43.98544227 75.19754105 -46.69736638 75.05923968 -49.84765625 74.4921875 C-48.52824623 70.94553459 -46.95878784 67.86130086 -44.93359375 64.66796875 C-44.34553955 63.7349292 -43.75748535 62.80188965 -43.15161133 61.84057617 C-42.51505615 60.83873291 -41.87850098 59.83688965 -41.22265625 58.8046875 C-39.85850389 56.64117401 -38.49525353 54.47709158 -37.1328125 52.3125 C-36.78101425 51.7543309 -36.429216 51.1961618 -36.0667572 50.62107849 C-32.90222082 45.59462171 -29.78654913 40.53881755 -26.68237305 35.47485352 C-25.33840062 33.28487455 -23.98962845 31.09783364 -22.63598633 28.91381836 C-19.50573756 23.86098208 -16.42833287 18.79507222 -13.48828125 13.62890625 C-12.70360474 12.28856323 -12.70360474 12.28856323 -11.90307617 10.92114258 C-10.93859142 9.27118755 -9.99919529 7.60619095 -9.09106445 5.92456055 C-6.55198291 1.65339975 -5.13712601 0.02609206 0 0 Z " fill="#168A53" transform="translate(423.84765625,277.5078125)"/>
<path d="M0 0 C21.78 0 43.56 0 66 0 C66 0.66 66 1.32 66 2 C152.13 2.495 152.13 2.495 240 3 C240 3.33 240 3.66 240 4 C162.12 4 84.24 4 4 4 C4 44.59 4 85.18 4 127 C3.67 127 3.34 127 3 127 C2.67 87.4 2.34 47.8 2 7 C1.67 47.92 1.34 88.84 1 131 C0.67 131 0.34 131 0 131 C0 87.77 0 44.54 0 0 Z " fill="#0A7C3F" transform="translate(218,249)"/>
<path d="M0 0 C3.28675392 1.604604 5.34349526 3.68699052 7 7 C7.3751455 11.97067782 7.15878799 15.05151502 4 19 C-0.84521813 22.08529585 -6.47543103 21.74496858 -12 21 C-15.22910257 19.37030283 -17.36074583 17.27850835 -19 14 C-19.37712577 9.00308353 -19.09290612 6.00932275 -16 2 C-11.12085332 -1.25276446 -5.6987946 -0.70623099 0 0 Z " fill="#FAFCFB" transform="translate(276,321)"/>
<path d="M0 0 C0.33 40.92 0.66 81.84 1 124 C4.96 124.33 8.92 124.66 13 125 C13 125.33 13 125.66 13 126 C4.585 126.495 4.585 126.495 -4 127 C-4.06940729 110.88423697 -4.12296344 94.76853542 -4.15543652 78.65265942 C-4.1709142 71.16999923 -4.19202081 63.68743353 -4.22631836 56.20483398 C-4.25619328 49.684006 -4.27556845 43.16324644 -4.28226548 36.64235193 C-4.28618102 33.18864334 -4.29540145 29.73513053 -4.31719017 26.2814846 C-4.34130019 22.42874826 -4.34197122 18.57620452 -4.34057617 14.72338867 C-4.351362 13.57468292 -4.36214783 12.42597717 -4.3732605 11.24246216 C-4.36913651 10.19498306 -4.36501251 9.14750397 -4.36076355 8.06828308 C-4.36352893 7.15662982 -4.36629431 6.24497656 -4.36914349 5.30569744 C-3.98730722 2.92071993 -2.8796925 0 0 0 Z " fill="#289664" transform="translate(223,253)"/>
<path d="M0 0 C2.93423195 1.79646854 4.47205355 2.9441071 6 6 C6.39069343 10.14135035 6.43382227 12.31186812 4.1875 15.875 C0.58811157 19.37154876 -2.99771928 19.33185896 -7.7734375 19.29296875 C-11.06805697 18.85946619 -12.76517216 17.37450458 -15 15 C-16.55024464 11.89951072 -16.28992015 9.42105782 -16 6 C-11.74948381 -0.51745815 -7.40182617 -0.87285686 0 0 Z " fill="#FAFCFB" transform="translate(275,289)"/>
<path d="M0 0 C0.33 0 0.66 0 1 0 C1 10.23 1 20.46 1 31 C-5.93 31 -12.86 31 -20 31 C-18.6092183 27.52304575 -17.68177931 25.27739129 -15.64453125 22.36328125 C-15.18997559 21.70779297 -14.73541992 21.05230469 -14.26708984 20.37695312 C-13.7870752 19.69568359 -13.30706055 19.01441406 -12.8125 18.3125 C-12.32217285 17.60931641 -11.8318457 16.90613281 -11.32666016 16.18164062 C-10.34459105 14.7741695 -9.36057678 13.36805339 -8.37451172 11.96337891 C-7.15804554 10.22575528 -5.95495802 8.47878237 -4.75390625 6.73046875 C-4.13386719 5.82941406 -3.51382813 4.92835938 -2.875 4 C-2.33617187 3.21625 -1.79734375 2.4325 -1.2421875 1.625 C-0.83226562 1.08875 -0.42234375 0.5525 0 0 Z " fill="#F5FAF8" transform="translate(682,410)"/>
<path d="M0 0 C5.57894737 3.15789474 5.57894737 3.15789474 7 6 C7.5811138 13.08958838 7.5811138 13.08958838 5.125 16.9375 C1.89661432 20.07093316 -0.44929709 20.39218693 -4.9609375 20.359375 C-8.38006698 19.7567698 -9.93189052 17.63213933 -12 15 C-13.45147903 12.09704195 -13.37239025 10.22738221 -13 7 C-9.58798533 1.48730466 -6.4900561 -0.62404386 0 0 Z " fill="#047A48" transform="translate(534,480)"/>
<path d="M0 0 C2.60865509 1.6722148 3.63837061 2.89147591 4.59765625 5.83203125 C5.40430602 9.92793251 5.19158812 11.63664321 3.1875 15.4375 C0.28538912 18.83711561 -0.29011091 18.94181237 -4.8125 19.3125 C-8.13227327 19.28232024 -8.99044521 19.0060988 -11.9375 17.125 C-15.07093316 13.89661432 -15.39218693 11.55070291 -15.359375 7.0390625 C-14.7567698 3.61993302 -12.63213933 2.06810948 -10 0 C-6.72864697 -1.63567651 -3.42638348 -0.85489964 0 0 Z " fill="#037A48" transform="translate(496,481)"/>
<path d="M0 0 C3.1875 0.3125 3.1875 0.3125 5.359375 1.92578125 C7.74562075 5.04115765 7.69188525 6.92423758 7.625 10.8125 C7.62371094 11.9365625 7.62242187 13.060625 7.62109375 14.21875 C7.15334984 17.55616604 6.59670613 18.98694686 4.1875 21.3125 C0.75 21.875 0.75 21.875 -2.8125 21.3125 C-5.65537154 19.12567574 -6.64321489 17.48595362 -7.15625 13.9296875 C-7.3354526 8.92694815 -7.06459327 5.34509566 -3.8125 1.3125 C-2.8125 0.3125 -2.8125 0.3125 0 0 Z " fill="#FAFCFB" transform="translate(422.8125,323.6875)"/>
<path d="M0 0 C3.375 0.9375 3.375 0.9375 5.375 3.9375 C5.67578125 7.15234375 5.67578125 7.15234375 5.6875 10.875 C5.70425781 12.10089844 5.72101563 13.32679688 5.73828125 14.58984375 C5.35603758 18.11223971 4.94106772 19.53660446 2.375 21.9375 C-1.125 22.4375 -1.125 22.4375 -4.625 21.9375 C-7.15071149 19.55761481 -7.60474605 18.09223288 -8.05859375 14.625 C-8.05988281 13.408125 -8.06117188 12.19125 -8.0625 10.9375 C-8.09150391 9.1121875 -8.09150391 9.1121875 -8.12109375 7.25 C-7.625 3.9375 -7.625 3.9375 -5.82421875 1.49609375 C-3.625 -0.0625 -3.625 -0.0625 0 0 Z " fill="#F8FCFA" transform="translate(379.625,285.0625)"/>
<path d="M0 0 C3.625 0.25 3.625 0.25 5.296875 1.46484375 C7.84788516 4.89370152 7.74754196 9.09647239 7.625 13.25 C5.59274194 18.76612903 5.59274194 18.76612903 2.625 20.25 C-2.74399365 20.70693563 -2.74399365 20.70693563 -5.1875 18.9375 C-7.88056362 15.11051486 -7.8930947 10.75478947 -7.375 6.25 C-4.47884301 0.33176615 -4.47884301 0.33176615 0 0 Z " fill="#F4F9F7" transform="translate(827.375,438.75)"/>
<path d="M0 0 C3.0625 0.3125 3.0625 0.3125 4.875 1.6875 C7.93413912 5.87369038 7.38519012 10.30686786 7.0625 15.3125 C6.1875 18.375 6.1875 18.375 5.0625 20.3125 C2.15194799 21.767776 0.28158202 21.76317148 -2.9375 21.3125 C-5.93851678 18.15353497 -7.18209728 15.54513963 -7.3125 11.25 C-6.80187984 5.88848834 -6.12905709 0.65202735 0 0 Z " fill="#F5FAF8" transform="translate(516.9375,727.6875)"/>
<path d="M0 0 C3.5 0.5625 3.5 0.5625 5.19140625 2.19140625 C6.8954914 5.2791068 6.93347021 7.54852413 6.9375 11.0625 C6.95683594 12.1865625 6.97617187 13.310625 6.99609375 14.46875 C6.40148546 18.17685837 5.51490946 19.37762778 2.5 21.5625 C-1.125 21.5625 -1.125 21.5625 -4.5 20.5625 C-7.58630588 16.10000527 -6.97543169 10.74623905 -6.5 5.5625 C-5.06273168 1.25069503 -4.51651516 0.72586851 0 0 Z " fill="#F7FBF9" transform="translate(783.5,399.4375)"/>
<path d="M0 0 C2.36398846 3.54598268 2.29818374 5.23329099 2.3125 9.4375 C2.32925781 10.57058594 2.34601563 11.70367188 2.36328125 12.87109375 C1.97002091 16.25820703 1.41934331 17.63744878 -1 20 C-3.9375 20.5625 -3.9375 20.5625 -7 20 C-9.77600056 17.80842061 -10.83495183 16.13122904 -11.34765625 12.6171875 C-11.51795689 7.6562559 -11.31281104 3.94989009 -8 0 C-5.06791253 -1.46604374 -3.11702298 -0.77925574 0 0 Z " fill="#F4F9F7" transform="translate(478,692)"/>
<path d="M0 0 C8.24550898 5.38922156 8.24550898 5.38922156 11.625 8.125 C14.58973548 10.46558064 17.68995782 12.18272194 21 14 C21.33 13.34 21.66 12.68 22 12 C28.13636364 21 28.13636364 21 27.625 24.75 C27.315625 25.86375 27.315625 25.86375 27 27 C21.59135181 24.0588266 16.7137284 20.71849066 11.8125 17 C11.11447266 16.47921875 10.41644531 15.9584375 9.69726562 15.421875 C2.40247893 9.92475696 2.40247893 9.92475696 0 7 C-0.25 3.25 -0.25 3.25 0 0 Z " fill="#D2D3D4" transform="translate(319,731)"/>
<path d="M0 0 C2.25867609 0.52123294 4.38217246 1.13981919 6.5625 1.9375 C11.29997522 3.40181052 16.1151047 4.18295345 21 5 C19.68 6.32 18.36 7.64 17 9 C18.49853516 9.07347656 18.49853516 9.07347656 20.02734375 9.1484375 C21.96287109 9.26058594 21.96287109 9.26058594 23.9375 9.375 C25.22527344 9.44460938 26.51304687 9.51421875 27.83984375 9.5859375 C29.40412109 9.79089844 29.40412109 9.79089844 31 10 C31.495 10.99 31.495 10.99 32 12 C19.76855473 11.58254453 7.98360812 9.34235426 -4 7 C-3.34 6.67 -2.68 6.34 -2 6 C-1.40929986 4.05396726 -1.40929986 4.05396726 -1 2 C-0.67 1.34 -0.34 0.68 0 0 Z " fill="#111111" transform="translate(432,914)"/>
<path d="M0 0 C0.99 0 1.98 0 3 0 C3.24979445 1.91408757 3.47408014 3.83151611 3.6875 5.75 C3.81511719 6.81734375 3.94273437 7.8846875 4.07421875 8.984375 C3.98770825 12.49943341 3.19031058 13.37162731 1 16 C0.43672257 18.11818257 0.43672257 18.11818257 0.3125 20.25 C0.1578125 22.10625 0.1578125 22.10625 0 24 C-1.84170838 22.43272547 -2.88776232 21.49350359 -3.43237305 19.09887695 C-3.45855713 18.40238037 -3.48474121 17.70588379 -3.51171875 16.98828125 C-3.54716797 16.23095703 -3.58261719 15.47363281 -3.61914062 14.69335938 C-3.64169922 13.90767578 -3.66425781 13.12199219 -3.6875 12.3125 C-3.72166016 11.51521484 -3.75582031 10.71792969 -3.79101562 9.89648438 C-3.87338104 7.93148096 -3.93837067 5.96576304 -4 4 C-3.01 4 -2.02 4 -1 4 C-0.67 2.68 -0.34 1.36 0 0 Z " fill="#111111" transform="translate(925,460)"/>
<path d="M0 0 C0.33 0 0.66 0 1 0 C1.01981934 0.73637695 1.03963867 1.47275391 1.06005859 2.23144531 C1.15537828 5.57132056 1.26502996 8.91057639 1.375 12.25 C1.4059375 13.40886719 1.436875 14.56773437 1.46875 15.76171875 C1.50742187 16.87675781 1.54609375 17.99179687 1.5859375 19.140625 C1.6173584 20.16704102 1.6487793 21.19345703 1.68115234 22.25097656 C2.00002479 25.00021375 2.70444724 26.59784945 4 29 C4.08203125 31.91015625 4.08203125 31.91015625 3.8125 35.0625 C3.69841797 36.62677734 3.69841797 36.62677734 3.58203125 38.22265625 C2.96119696 41.18516081 2.39203832 42.21369748 0 44 C-0.33 44 -0.66 44 -1 44 C-1.11106651 29.29479376 -1.06151387 14.67163815 0 0 Z " fill="#030202" transform="translate(924,496)"/>
<path d="M0 0 C3.32993034 3.82941989 5.05324525 8.37522222 7 13 C5.68 13 4.36 13 3 13 C2.67 13.99 2.34 14.98 2 16 C1.34 16 0.68 16 0 16 C-3.04157942 10.77228537 -4.50610724 7.07328688 -4 1 C-2.68 0.67 -1.36 0.34 0 0 Z " fill="#0D0E0E" transform="translate(140,685)"/>
<path d="M0 0 C0.33 0 0.66 0 1 0 C1.18451025 17.85649203 1.18451025 17.85649203 0 26 C-0.33 24.68 -0.66 23.36 -1 22 C-1.99 22 -2.98 22 -4 22 C-4 17.05 -4 12.1 -4 7 C-3.34 7.66 -2.68 8.32 -2 9 C-0.50256881 7.50256881 -0.66797307 6.01175761 -0.4375 3.9375 C-0.2209375 1.9884375 -0.2209375 1.9884375 0 0 Z " fill="#0E0E0E" transform="translate(929,482)"/>
<path d="M0 0 C2.43801333 3.94322156 2.89449131 8.25513529 3.625 12.75 C3.7590625 13.54277344 3.893125 14.33554687 4.03125 15.15234375 C4.35987298 17.10060858 4.68070705 19.05018439 5 21 C2.42886848 18.77215307 1.5695109 17.20072725 0.9375 13.875 C0.628125 12.59625 0.31875 11.3175 0 10 C-0.66 9.67 -1.32 9.34 -2 9 C-2.33 9.66 -2.66 10.32 -3 11 C-3.66 10.67 -4.32 10.34 -5 10 C-4.3001048 6.85047161 -3.34839851 3.9347497 -2 1 C-1.34 0.67 -0.68 0.34 0 0 Z " fill="#141515" transform="translate(919,414)"/>
<path d="M0 0 C0.66 0 1.32 0 2 0 C2.66 1.32 3.32 2.64 4 4 C4.33 3.01 4.66 2.02 5 1 C5.99 1 6.98 1 8 1 C8.66 3.31 9.32 5.62 10 8 C9.360625 8.2475 8.72125 8.495 8.0625 8.75 C5.81258459 9.81562433 5.81258459 9.81562433 5.25 12.125 C5.1675 12.74375 5.085 13.3625 5 14 C2.99006295 10.98509443 2.27376659 8.7850073 1.375 5.3125 C1.11460938 4.31863281 0.85421875 3.32476563 0.5859375 2.30078125 C0.39257812 1.54152344 0.19921875 0.78226563 0 0 Z " fill="#101010" transform="translate(114,636)"/>
<path d="M0 0 C0.66 0 1.32 0 2 0 C3.81242323 4.0188515 5.33501617 7.61110675 6 12 C5.01 12 4.02 12 3 12 C2.49440092 10.56445975 1.9957251 9.1264798 1.5 7.6875 C1.2215625 6.88699219 0.943125 6.08648437 0.65625 5.26171875 C0 3 0 3 0 0 Z M6 5 C6.99 5 7.98 5 9 5 C10.7578125 10.95703125 10.7578125 10.95703125 11 13 C10.01 14.485 10.01 14.485 9 16 C7.72746564 12.35206816 6.67170806 8.8063457 6 5 Z " fill="#101010" transform="translate(902,377)"/>
<path d="M0 0 C0 0.99 0 1.98 0 3 C-0.99 3 -1.98 3 -3 3 C-3 3.66 -3 4.32 -3 5 C-1.35 5 0.3 5 2 5 C2 5.33 2 5.66 2 6 C-0.97 5.67 -3.94 5.34 -7 5 C-7 5.66 -7 6.32 -7 7 C-8.32 6.67 -9.64 6.34 -11 6 C-11 5.34 -11 4.68 -11 4 C-10.01 4 -9.02 4 -8 4 C-8 3.34 -8 2.68 -8 2 C-8.66 1.67 -9.32 1.34 -10 1 C-6.52674819 -0.1577506 -3.63932552 -0.06866652 0 0 Z " fill="#111111" transform="translate(570,96)"/>
<path d="M0 0 C10.07768749 -0.63537084 10.07768749 -0.63537084 13.8125 1.9375 C14.534375 2.618125 15.25625 3.29875 16 4 C19.18762109 4.79690838 19.18762109 4.79690838 22 5 C22 5.33 22 5.66 22 6 C17.9472484 6.98248524 14.16138263 7.08159574 10 7 C10 5.68 10 4.36 10 3 C9.34 3 8.68 3 8 3 C8 2.34 8 1.68 8 1 C5.36 1 2.72 1 0 1 C0 0.67 0 0.34 0 0 Z " fill="#1A1A1B" transform="translate(529,921)"/>
<path d="M0 0 C1.231394 2.46278801 1.07159196 4.2795055 1 7 C2.32 6.67 3.64 6.34 5 6 C5 7.65 5 9.3 5 11 C4.67 10.34 4.34 9.68 4 9 C3.34 9 2.68 9 2 9 C1.34 10.65 0.68 12.3 0 14 C-0.99 14 -1.98 14 -3 14 C-2.88570603 12.22844346 -2.75816963 10.45773771 -2.625 8.6875 C-2.55539063 7.70136719 -2.48578125 6.71523438 -2.4140625 5.69921875 C-2 3 -2 3 0 0 Z " fill="#131314" transform="translate(101,439)"/>
<path d="M0 0 C1.33895632 1.66215268 2.67130142 3.32963607 4 5 C4.8971875 5.9590625 4.8971875 5.9590625 5.8125 6.9375 C7.49968467 9.86787337 6.79671067 11.81315733 6 15 C2.535 13.02 2.535 13.02 -1 11 C-0.67 10.34 -0.34 9.68 0 9 C1.32 9 2.64 9 4 9 C3.34 8.071875 2.68 7.14375 2 6.1875 C0 3 0 3 0 0 Z " fill="#E6E8E9" transform="translate(340,743)"/>
<path d="M0 0 C0.66 0 1.32 0 2 0 C2 2.64 2 5.28 2 8 C1.21625 8.28875 0.4325 8.5775 -0.375 8.875 C-3.09671632 9.84912254 -3.09671632 9.84912254 -5 12 C-5 9.69 -5 7.38 -5 5 C-4.34 4.67 -3.68 4.34 -3 4 C-2.34 3.01 -1.68 2.02 -1 1 C-0.67 0.67 -0.34 0.34 0 0 Z " fill="#050505" transform="translate(103,448)"/>
<path d="M0 0 C0.33 0.66 0.66 1.32 1 2 C1.66 2.33 2.32 2.66 3 3 C3 3.99 3 4.98 3 6 C3.66 5.67 4.32 5.34 5 5 C5.33 6.65 5.66 8.3 6 10 C4.25 10.75 4.25 10.75 2 11 C-0.3125 9.4375 -0.3125 9.4375 -2 7 C-1.6875 1.6875 -1.6875 1.6875 0 0 Z " fill="#060606" transform="translate(908,385)"/>
<path d="M0 0 C0.99 0.33 1.98 0.66 3 1 C2.125 5.75 2.125 5.75 1 8 C-1.32156597 8.40729228 -3.6568787 8.74438677 -6 9 C-5.12467243 5.71752159 -4.49145848 3.49145848 -2.0625 1.0625 C-1.381875 0.711875 -0.70125 0.36125 0 0 Z " fill="#050505" transform="translate(136,334)"/>
<path d="M0 0 C0.66 0.33 1.32 0.66 2 1 C1.57847656 1.36609375 1.15695313 1.7321875 0.72265625 2.109375 C-4.13201501 6.90693248 -4.74494877 10.90444147 -4.9921875 17.62109375 C-4.99476563 18.40613281 -4.99734375 19.19117188 -5 20 C-7.37160148 17.62839852 -7.31983352 16.99378878 -7.375 13.75 C-7.2592195 8.21034841 -4.96980975 5.11051045 -1.25 1.125 C-0.8375 0.75375 -0.425 0.3825 0 0 Z " fill="#0F8247" transform="translate(251,316)"/>
<path d="M0 0 C0.99 0.66 1.98 1.32 3 2 C3.4375 5.4375 3.4375 5.4375 3 9 C1 10.9375 1 10.9375 -1 12 C-1.5745952 8.26513121 -2 4.78706732 -2 1 C-1.34 0.67 -0.68 0.34 0 0 Z " fill="#050505" transform="translate(100,460)"/>
<path d="M0 0 C3.465 1.485 3.465 1.485 7 3 C6 5 5 7 4 9 C2.02 8.34 0.04 7.68 -2 7 C-2 6.01 -2 5.02 -2 4 C-1.01 4 -0.02 4 1 4 C1.33 3.34 1.66 2.68 2 2 C1.34 2 0.68 2 0 2 C0 1.34 0 0.68 0 0 Z " fill="#040404" transform="translate(707,140)"/>
<path d="M0 0 C1.51400391 0.01740234 1.51400391 0.01740234 3.05859375 0.03515625 C4.07050781 0.04417969 5.08242188 0.05320312 6.125 0.0625 C7.29869141 0.07990234 7.29869141 0.07990234 8.49609375 0.09765625 C7.83609375 1.41765625 7.17609375 2.73765625 6.49609375 4.09765625 C5.21734375 4.15953125 3.93859375 4.22140625 2.62109375 4.28515625 C1.90179687 4.31996094 1.1825 4.35476563 0.44140625 4.390625 C-0.20054687 4.29394531 -0.8425 4.19726562 -1.50390625 4.09765625 C-2.16390625 3.10765625 -2.82390625 2.11765625 -3.50390625 1.09765625 C-2.50390625 0.09765625 -2.50390625 0.09765625 0 0 Z " fill="#030304" transform="translate(542.50390625,920.90234375)"/>
<path d="M0 0 C0.66 0 1.32 0 2 0 C2 0.66 2 1.32 2 2 C3.32 2.33 4.64 2.66 6 3 C5.67 3.99 5.34 4.98 5 6 C5.74851382 8.10234944 5.74851382 8.10234944 6.9375 10.1875 C7.31777344 10.90292969 7.69804688 11.61835938 8.08984375 12.35546875 C8.54037109 13.16951172 8.54037109 13.16951172 9 14 C8.01 14 7.02 14 6 14 C4.99515796 12.04414675 3.99626195 10.08523763 3 8.125 C2.1646875 6.48917969 2.1646875 6.48917969 1.3125 4.8203125 C0 2 0 2 0 0 Z " fill="#121313" transform="translate(877,319)"/>
<path d="M0 0 C1.98 0.495 1.98 0.495 4 1 C4 2.32 4 3.64 4 5 C6.31 5.33 8.62 5.66 11 6 C11 6.33 11 6.66 11 7 C7.7 7 4.4 7 1 7 C0.67 6.34 0.34 5.68 0 5 C0.33 4.34 0.66 3.68 1 3 C0.34 2.67 -0.32 2.34 -1 2 C-0.67 1.34 -0.34 0.68 0 0 Z " fill="#191919" transform="translate(467,95)"/>
<path d="M0 0 C2.97 0 5.94 0 9 0 C7.8141763 3.37503669 6.72426311 5.64722731 4 8 C4.66 6.35 5.32 4.7 6 3 C3.69 3 1.38 3 -1 3 C-0.67 2.01 -0.34 1.02 0 0 Z " fill="#0C7F44" transform="translate(419,278)"/>
<path d="M0 0 C2 1 2 1 3.125 4.0625 C3.41375 5.031875 3.7025 6.00125 4 7 C2.02 7.66 0.04 8.32 -2 9 C-1.67 6.69 -1.34 4.38 -1 2 C-1.66 1.67 -2.32 1.34 -3 1 C-2.01 0.67 -1.02 0.34 0 0 Z " fill="#0F1010" transform="translate(375,115)"/>
<path d="M0 0 C0.33 1.65 0.66 3.3 1 5 C0.01 4.67 -0.98 4.34 -2 4 C-2.33 4.66 -2.66 5.32 -3 6 C-3.99 6.66 -4.98 7.32 -6 8 C-5.62403791 5.21788056 -5.32681541 3.4120716 -3.5625 1.1875 C-2 0 -2 0 0 0 Z " fill="#131213" transform="translate(119,627)"/>
<path d="M0 0 C0.66 1.32 1.32 2.64 2 4 C3.65 4 5.3 4 7 4 C7 4.66 7 5.32 7 6 C3.7 6 0.4 6 -3 6 C-1.125 1.125 -1.125 1.125 0 0 Z " fill="#0A7B3D" transform="translate(781,460)"/>
<path d="M0 0 C2.475 0.495 2.475 0.495 5 1 C4.67 2.65 4.34 4.3 4 6 C3.01 6.33 2.02 6.66 1 7 C0.67 4.69 0.34 2.38 0 0 Z " fill="#040404" transform="translate(915,423)"/>
<path d="M0 0 C2.39073445 3.82517513 2.55966552 7.59665524 3 12 C0 10 0 10 -0.546875 8.125 C-0.61390625 7.42375 -0.6809375 6.7225 -0.75 6 C-0.82734375 5.29875 -0.9046875 4.5975 -0.984375 3.875 C-1 2 -1 2 0 0 Z " fill="#121212" transform="translate(916,402)"/>
<path d="M0 0 C1.32 0.33 2.64 0.66 4 1 C4.33 2.32 4.66 3.64 5 5 C4.01 5 3.02 5 2 5 C1.34 4.34 0.68 3.68 0 3 C0 2.01 0 1.02 0 0 Z M1 6 C1.66 6 2.32 6 3 6 C3.33 7.32 3.66 8.64 4 10 C2.97895449 9.02149805 1.9793879 8.02019573 1 7 C1 6.67 1 6.34 1 6 Z " fill="#0F0F0F" transform="translate(303,864)"/>
<path d="M0 0 C1.65 0 3.3 0 5 0 C4.67 1.65 4.34 3.3 4 5 C3.01 5.33 2.02 5.66 1 6 C0.67 4.02 0.34 2.04 0 0 Z " fill="#060607" transform="translate(119,644)"/>
<path d="M0 0 C1.65 0 3.3 0 5 0 C5 1.32 5 2.64 5 4 C4.01 4.33 3.02 4.66 2 5 C1.34 3.35 0.68 1.7 0 0 Z " fill="#E6E4E6" transform="translate(770,369)"/>
<path d="M0 0 C0.99 0 1.98 0 3 0 C2.46930939 3.82097239 1.50298434 6.06171403 -1 9 C-1.09765625 2.84765625 -1.09765625 2.84765625 -1 1 C-0.67 0.67 -0.34 0.34 0 0 Z " fill="#030203" transform="translate(923,541)"/>
<path d="M0 0 C0.99 0 1.98 0 3 0 C2.67 0.66 2.34 1.32 2 2 C1.34 1.34 0.68 0.68 0 0 Z M-3 2 C-1.35 2 0.3 2 2 2 C1.67 3.32 1.34 4.64 1 6 C-0.32 5.34 -1.64 4.68 -3 4 C-3 3.34 -3 2.68 -3 2 Z " fill="#050606" transform="translate(429,914)"/>
<path d="M0 0 C0.33 0 0.66 0 1 0 C1 2.31 1 4.62 1 7 C-0.32 7.33 -1.64 7.66 -3 8 C-2.45276317 4.62537285 -1.9451 2.91765 0 0 Z " fill="#040404" transform="translate(926,552)"/>
<path d="M0 0 C0.99 0 1.98 0 3 0 C3.625 2.875 3.625 2.875 4 6 C3.34 6.66 2.68 7.32 2 8 C1.34 5.36 0.68 2.72 0 0 Z " fill="#0E7341" transform="translate(631,529)"/>
<path d="M0 0 C0.99 0 1.98 0 3 0 C4.4606285 2.64738916 5 3.89448334 5 7 C4.34 7 3.68 7 3 7 C0 2.61538462 0 2.61538462 0 0 Z " fill="#131313" transform="translate(864,296)"/>
</svg>
